<?xml version="1.0" encoding="utf-8" standalone="yes"?>
<!DOCTYPE svg PUBLIC "-//W3C//DTD SVG 1.1//EN" "http://www.w3.org/Graphics/SVG/1.1/DTD/svg11.dtd">
<svg width="758" height="643" viewBox="0 0 758 643" style="fill:none;stroke:none;fill-rule:evenodd;clip-rule:evenodd;stroke-linecap:round;stroke-linejoin:round;stroke-miterlimit:1.5;" version="1.1" xmlns="http://www.w3.org/2000/svg" xmlns:xlink="http://www.w3.org/1999/xlink"><style class="text-font-style fontImports" data-font-family="Roboto">@import url('https://fonts.googleapis.com/css2?family=Roboto:wght@400;700&amp;display=block');</style><rect id="" x="0" y="0" width="758" height="642.828" style="fill: #2c2c2c;"></rect><g id="items" style="isolation: isolate"><g id="blend" style="mix-blend-mode: normal"><g id="g-root-tf_18kokizl520pa-fill" data-item-order="-484466" transform="translate(-9, -9)"><g id="tf_18kokizl520pa-fill" stroke="none" fill="#2c2c2c"><g><path d="M 10 10L 766 10L 766 650.83L 10 650.83Z"></path></g></g></g><g id="g-root-0b.g-0b_fr_1cymaqzl5ivia-fill" data-item-order="-385726" transform="translate(63.83702087402344, 346.171875)"><g id="0b.g-0b_fr_1cymaqzl5ivia-fill" stroke="none" fill="#545454"><g><path d="M 72.782085 101.640563L 39.062685 92.605763C 35.846985 91.785363 32.569385 93.672163 31.718185 96.848963C 30.866585 100.027063 32.763585 103.301163 35.960885 104.197063L 10.204485 200.321062C 9.792585 201.858063 10.008185 203.496063 10.803885 204.874062L 15.217185 212.518062L 41.357585 114.961263C 42.215185 111.760463 45.505185 109.860963 48.705985 110.718563C 51.906785 111.576263 53.806285 114.866263 52.948685 118.067062L 23.702485 227.215063L 24.531785 228.651063C 25.636385 230.565063 28.082685 231.220063 29.995885 230.116063L 31.428985 229.288063L 61.451985 117.240663C 62.309585 114.039863 65.599685 112.140363 68.800485 112.997963L 70.733685 113.516163L 70.735285 113.515263L 75.609285 114.821263C 75.582685 114.492562 75.583185 114.157463 75.612885 113.818163C 75.821285 111.435963 77.411385 109.502563 79.535785 108.720663C 76.785585 107.574963 74.514685 105.425663 73.238185 102.636863L 72.782085 101.640563Z"></path></g></g><g id="0b.g-0b_fr_1cymaqzl5ivia-fill" stroke="none" fill="#545454"><g><path d="M 48.706958 110.721525C 45.506158 109.863925 42.216158 111.763425 41.358458 114.964225L 15.218158 212.521625L 15.217758 212.522625L 23.703058 227.219625L 23.703458 227.218625L 52.949558 118.070025C 53.807258 114.869225 51.907758 111.579225 48.706958 110.721525Z"></path></g></g><g id="0b.g-0b_fr_1cymaqzl5ivia-fill" stroke="none" fill="#545454"><g><path d="M 68.801173 113.002775C 65.600373 112.145175 62.310373 114.044675 61.452672 117.245475L 31.429673 229.292875L 50.308173 218.392875C 50.767473 218.127875 51.102673 217.690875 51.239973 217.178875L 52.881773 211.051975C 53.018973 210.539575 52.947173 209.993675 52.681973 209.534275L 47.439273 200.453775L 54.070273 196.625375C 54.529673 196.360075 54.864873 195.923275 55.002173 195.410875L 56.126273 191.215775C 56.263573 190.703375 56.191673 190.157475 55.926473 189.698175L 52.098073 183.067075L 57.714473 179.824475C 58.671073 179.272175 58.998773 178.048975 58.446473 177.092375L 55.203873 171.475975L 64.494473 166.112075C 65.451073 165.559775 65.778873 164.336575 65.226573 163.379975L 59.862573 154.089375L 65.478973 150.846675C 66.435573 150.294375 66.763373 149.071175 66.211073 148.114675L 62.968472 142.498175L 69.599473 138.669775C 70.058873 138.404575 70.393973 137.967775 70.531273 137.455375L 71.655373 133.260275C 71.792673 132.747875 71.720773 132.201975 71.455573 131.742575L 67.627173 125.111575L 74.258172 121.283175C 74.717573 121.017875 75.052772 120.581075 75.190073 120.068675L 76.528573 115.073375L 68.801173 113.002775Z"></path></g></g><g id="0b.g-0b_fr_1cymaqzl5ivia-fill" stroke="none" fill="#545454"><g><path d="M 55.362843 49.523006C 52.963143 53.002306 52.570443 57.486906 54.329543 61.330106L 66.982543 88.973006L 50.002543 84.423206C 46.928443 83.599506 44.310343 81.589106 42.719043 78.832906L 27.374843 52.256006C 25.165743 48.429606 26.476743 43.536906 30.303043 41.327806L 79.405843 12.978306C 79.942343 12.668606 80.499743 12.428006 81.067843 12.253906L 55.362843 49.523006Z"></path></g></g><g id="0b.g-0b_fr_1cymaqzl5ivia-fill" stroke="none" fill="#545454"><g><path d="M 122.889087 123.972606C 122.895187 123.979006 122.901187 123.985406 122.907287 123.991806L 121.412187 141.080606C 121.365987 141.609006 121.111687 142.097406 120.705387 142.438306L 114.839887 147.360106L 119.008587 152.328106C 119.718587 153.174306 119.608187 154.435806 118.762087 155.145806L 113.793987 159.314406L 118.715787 165.179906C 119.056687 165.586306 119.222287 166.111406 119.176087 166.639806L 118.797587 170.966406C 118.751287 171.494806 118.497087 171.983206 118.090687 172.324206L 112.225187 177.245906L 117.146987 183.111406C 117.487887 183.517806 117.653487 184.042906 117.607287 184.571306L 117.228687 188.897906C 117.182487 189.426306 116.928287 189.914806 116.521887 190.255706L 110.656387 195.177406L 117.396287 203.209606C 117.737187 203.616006 117.902787 204.141106 117.856587 204.669506L 117.303687 210.988506C 117.257487 211.516906 117.003187 212.005306 116.596887 212.346306L 108.564687 219.086106L 115.460487 227.303906C 116.170487 228.149906 116.060087 229.411906 115.213987 230.121906L 98.329087 244.289906L 108.439187 128.731306C 108.727987 125.430206 111.638187 122.988306 114.939287 123.277106L 122.889087 123.972606Z"></path></g></g><g id="0b.g-0b_fr_1cymaqzl5ivia-fill" stroke="none" fill="#545454"><g><path d="M 94.754933 124.5232C 91.453833 124.2344 88.543633 126.6763 88.254833 129.9774L 79.452133 230.593L 90.360633 243.593L 100.209233 131.0233C 100.498033 127.7222 98.056033 124.812 94.754933 124.5232ZM 100.209233 131.0233L 90.360633 243.593L 79.452133 230.593L 88.254833 129.9774C 88.543633 126.6763 91.453833 124.2344 94.754933 124.5232C 98.056033 124.812 100.498033 127.7222 100.209233 131.0233ZM 90.360633 243.593L 100.209233 131.0233C 100.498033 127.7222 98.056033 124.812 94.754933 124.5232C 91.453833 124.2344 88.543633 126.6763 88.254833 129.9774L 79.452133 230.593L 90.360633 243.593Z"></path></g></g><g id="0b.g-0b_fr_1cymaqzl5ivia-fill" stroke="none" fill="#545454"><g><path d="M 121.884155 112.09165L 79.539155 108.71875C 77.413655 109.50015 75.822555 111.43395 75.614055 113.81705C 75.327255 117.09465 77.763955 119.98965 81.068255 120.31675L 72.394855 219.45275C 72.256255 221.03875 72.752955 222.61375 73.775855 223.83275L 79.452355 230.59675L 88.255055 129.98085C 88.543855 126.67975 91.454055 124.23785 94.755155 124.52665C 98.056255 124.81545 100.498155 127.72565 100.209355 131.02675L 90.360755 243.59675L 91.424055 244.86475C 92.844055 246.55775 95.367155 246.77775 97.059455 245.35775L 98.330055 244.29275L 108.440155 128.73425C 108.728955 125.43315 111.639155 122.99115 114.940255 123.27995L 122.889355 123.97575C 121.997755 123.03155 121.407455 121.79615 121.286055 120.40855C 121.019255 117.35855 123.110655 114.63985 126.064955 114.01345C 124.641355 113.43135 123.246655 112.78975 121.884155 112.09165Z"></path></g></g><g id="0b.g-0b_fr_1cymaqzl5ivia-fill" stroke="none" fill="#545454"><g><path d="M 116.558441 19.023556C 100.661441 29.615356 90.889041 48.332556 92.671241 68.703856C 93.194441 74.684056 94.673541 80.350956 96.944841 85.567256L 90.184041 84.975756C 86.882941 84.686956 83.972741 87.128956 83.683941 90.430056C 83.514341 92.368356 80.885941 92.827556 80.069141 91.061556L 65.089341 58.672256C 64.195241 56.738856 64.393141 54.476356 65.609441 52.727556L 88.644541 19.609256C 89.872441 17.843856 91.951041 16.870656 94.093141 17.058056L 116.558441 19.023556Z"></path></g></g><g id="0b.g-0b_fr_1cymaqzl5ivia-fill" stroke="none" fill="#545454"><g><path d="M 156.202873 129.400525C 155.914073 126.099425 158.355973 123.189125 161.657073 122.900325L 169.626673 122.203125L 170.077373 127.355025C 170.123572 127.883425 169.958073 128.408525 169.617073 128.814925L 164.695373 134.680425L 169.663373 138.849025C 170.509473 139.559025 170.619873 140.820525 169.909873 141.666725L 165.741273 146.634725L 171.606673 151.556425C 172.013073 151.897425 172.267273 152.385825 172.313573 152.914225L 172.692073 157.240825C 172.738273 157.769225 172.572673 158.294425 172.231773 158.700725L 167.310073 164.566225L 172.278073 168.734925C 173.124173 169.444925 173.234573 170.706425 172.524573 171.552525L 168.355873 176.520525L 176.388073 183.260425C 176.794373 183.601325 177.048673 184.089725 177.094873 184.618125L 177.647773 190.937125C 177.693973 191.465625 177.528373 191.990725 177.187473 192.397025L 170.447673 200.429225L 176.313173 205.351025C 176.719473 205.691925 176.973673 206.180325 177.019973 206.708725L 177.398473 211.035325C 177.444673 211.563725 177.279173 212.088925 176.938173 212.495225L 172.016473 218.360725L 180.234473 225.256125C 181.080673 225.966125 181.191073 227.228125 180.480973 228.074125L 166.312973 244.959125L 166.312773 244.957125L 156.202873 129.400525Z"></path></g></g><g id="0b.g-0b_fr_1cymaqzl5ivia-fill" stroke="none" fill="#545454"><g><path d="M 141.994963 127.632575C 138.693863 127.921375 136.251963 130.831575 136.540763 134.132675L 145.343363 234.747375L 145.343463 234.748375L 158.343563 245.655375L 148.495063 133.086775C 148.206263 129.785675 145.296063 127.343775 141.994963 127.632575Z"></path></g></g><g id="0b.g-0b_fr_1cymaqzl5ivia-fill" stroke="none" fill="#545454"><g><path d="M 149.71688 111.921744L 126.07038 114.012144C 123.11298 114.636244 121.01858 117.356544 121.28558 120.408544C 121.57238 123.686144 124.47478 126.114044 127.78558 125.862344L 136.45888 224.998844C 136.59758 226.583844 137.36038 228.048844 138.57938 229.071844L 145.34288 234.746844L 136.54018 134.132944C 136.25138 130.831844 138.69338 127.921644 141.99448 127.632844C 145.29558 127.344044 148.20578 129.785944 148.49458 133.087044L 158.34308 245.655844L 159.61178 246.719844C 161.30408 248.139844 163.82708 247.919844 165.24708 246.226844L 166.31228 244.957844L 156.20228 129.400644C 155.91348 126.099544 158.35548 123.189344 161.65658 122.900544L 171.47978 122.040444C 169.33968 121.579644 167.53368 119.981144 166.93358 117.741544C 166.15508 114.836044 167.67378 111.850244 170.38328 110.674944L 170.39058 110.671744L 170.31558 110.630644L 170.30678 110.633044L 165.38038 111.953044C 160.05368 113.380344 154.67758 113.280444 149.71688 111.921744Z"></path></g></g><g id="0b.g-0b_fr_1cymaqzl5ivia-fill" stroke="none" fill="#545454"><g><path d="M 151.399176 20.3984C 143.643076 29.144 140.288676 41.4939 143.540576 53.63L 144.213576 56.1415C 131.903276 62.2723 125.100676 76.2812 128.470776 90.0879C 126.330676 91.1561 124.951376 93.4542 125.172476 95.9814C 125.424676 98.8644 122.402676 100.8066 120.090576 99.066C 110.495776 91.8433 103.887576 80.7334 102.758476 67.8278C 100.646476 43.6885 118.503276 22.4077 142.642476 20.2957C 145.614876 20.0357 148.543976 20.0784 151.399176 20.3984Z"></path></g></g><g id="0b.g-0b_fr_1cymaqzl5ivia-fill" stroke="none" fill="#545454"><g><path d="M 218.438154 97.730231L 218.410354 97.737731L 170.307454 110.626831L 170.391054 110.672531C 167.677054 111.845631 166.154854 114.834331 166.934054 117.742431C 167.785654 120.920431 171.065554 122.807531 174.282354 121.984631L 200.038754 218.108531C 200.450654 219.645531 201.456254 220.956531 202.834354 221.752531L 210.480454 226.166531L 184.339754 128.608231C 183.482054 125.407431 185.381554 122.117431 188.582354 121.259831C 191.783154 120.402131 195.073254 122.301631 195.930854 125.502431L 225.177454 234.652531L 226.611754 235.479531C 228.524954 236.584531 230.971254 235.928531 232.075854 234.015531L 232.904354 232.580531L 202.881354 120.533631C 202.023754 117.332831 203.923154 114.042831 207.123954 113.185131L 221.543954 109.321431C 224.782754 108.453531 226.713154 105.155231 225.855454 101.954431C 224.997854 98.753631 221.676954 96.862431 218.438154 97.730231Z"></path></g></g><g id="0b.g-0b_fr_1cymaqzl5ivia-fill" stroke="none" fill="#545454"><g><path d="M 207.124366 113.187788C 203.923566 114.045388 202.024066 117.335388 202.881666 120.536188L 232.904766 232.583188L 241.804166 217.169188C 242.356466 216.212188 242.028766 214.989188 241.072166 214.437188L 235.455766 211.194188L 239.284166 204.563488C 239.549366 204.104088 239.621266 203.558188 239.483966 203.045888L 238.359866 198.850688C 238.222566 198.338388 237.887366 197.901488 237.428066 197.636287L 230.796966 193.807888L 229.244066 188.012288L 233.072466 181.381287C 233.337766 180.921888 233.409566 180.375988 233.272266 179.863688L 232.148266 175.668488C 232.010966 175.156088 231.675766 174.719288 231.216366 174.454088L 224.585366 170.625688L 229.949266 161.334988C 230.501566 160.378388 230.173866 159.155188 229.217266 158.602987L 219.926566 153.238988L 223.169266 147.622588C 223.721566 146.665988 223.393766 145.442788 222.437166 144.890488L 220.494966 143.769187L 223.616366 138.362888C 223.881566 137.903588 223.953366 137.357588 223.816166 136.845288L 222.174366 130.718288C 222.037066 130.205888 221.701866 129.769088 221.242566 129.503888L 212.162066 124.261188L 215.990466 117.630188C 216.255666 117.170788 216.327566 116.624888 216.190266 116.112588L 214.851766 111.117188L 207.124366 113.187788Z"></path></g></g><g id="0b.g-0b_fr_1cymaqzl5ivia-fill" stroke="none" fill="#545454"><g><path d="M 188.582374 121.260588C 185.381574 122.118288 183.482074 125.408288 184.339674 128.609088L 210.480474 226.167688L 225.177374 234.652688L 195.930774 125.503288C 195.073174 122.302488 191.783174 120.402988 188.582374 121.260588Z"></path></g></g><g id="0b.g-0b_fr_1cymaqzl5ivia-fill" stroke="none" fill="#545454"><g><path d="M 193.902821 23.035516C 187.614521 18.702016 179.537321 17.049116 171.582521 19.180616C 157.178921 23.040016 148.631221 37.845116 152.490621 52.248716L 154.561221 59.976116C 154.990021 61.576516 154.040321 63.221516 152.439921 63.650416C 141.770621 66.509216 135.438921 77.475916 138.297721 88.145216C 141.156621 98.814616 152.123321 105.146216 162.792621 102.287416L 220.748221 86.758216C 231.417521 83.899416 237.749321 72.932716 234.890321 62.263316C 232.031521 51.594016 221.064821 45.262416 210.395421 48.121216C 208.795021 48.550016 207.150021 47.600316 206.721221 45.999916L 204.650621 38.272516C 203.973621 35.745916 202.959821 33.399416 201.670521 31.268616C 196.865821 34.074116 191.884021 36.609416 186.746021 38.853516C 186.201621 42.704716 183.423421 46.047216 179.429421 47.117416C 176.043621 48.024616 172.597921 47.080816 170.166721 44.906216L 170.162621 44.907516C 168.765421 43.656216 167.703821 41.998316 167.182121 40.051416C 166.979821 39.296416 166.869621 38.538316 166.844521 37.789216C 166.689921 33.243816 169.671721 29.026416 174.253021 27.798916C 176.995321 27.064116 179.776821 27.543616 182.026821 28.907716C 186.095021 27.143716 190.057621 25.182316 193.902821 23.035516Z"></path></g></g></g><g id="g-root-1.g-1_fr_hydo8bl5ivb7-fill" data-item-order="-385716" transform="translate(67.59188842773438, 335.06591796875)"><g id="1.g-1_fr_hydo8bl5ivb7-fill" stroke="none" fill="#3b5649"><g><path d="M 63.2279 100.0822L 46.248 95.5325C 43.1739 94.7088 40.5563 92.6985 38.965 89.9423L 23.6208 63.3654C 21.4116 59.539 22.7226 54.6463 26.549 52.4372L 75.6517 24.0877C 76.1886 23.7777 76.7465 23.537 77.315 23.3629L 77.4003 23.2393C 79.8516 19.6851 84.0238 17.7218 88.3249 18.0981L 93.9384 18.5892L 92.4446 16.002C 89.1309 10.2625 81.7919 8.296 76.0523 11.6097L 16.002 46.2798C 10.2625 49.5935 8.296 56.9326 11.6097 62.6721L 35.3075 103.718L 69.0276 112.753L 63.2279 100.0822Z"></path></g></g></g><g id="g-root-2.g-2_fr_1qd76jvl5iv45-fill" data-item-order="-385712" transform="translate(107.08102416992188, 343.113037109375)"><g id="2.g-2_fr_1qd76jvl5iv45-fill" stroke="none" fill="#68403f"><g><path d="M 93.420669 13.9484C 93.346769 13.9405 93.272669 13.9334 93.198369 13.9269L 48.837669 10.0458C 44.536569 9.6695 40.364869 11.6328 37.913469 15.1869L 12.121769 52.5813C 9.722069 56.0606 9.329669 60.5458 11.088769 64.3889L 29.995169 105.6939C 31.271969 108.4833 33.543469 110.633 36.294469 111.778L 78.656569 115.152C 67.640369 109.5128 58.730069 100.1745 53.701669 88.6275L 46.939869 88.036C 43.638769 87.7471 40.728569 90.1891 40.439769 93.4902C 40.270169 95.4285 37.641669 95.8877 36.824969 94.1217L 21.845169 61.7324C 20.951069 59.799 21.148969 57.5365 22.365269 55.7878L 45.400369 22.6694C 46.628169 20.9041 48.706869 19.9308 50.848969 20.1182L 73.311169 22.0834C 79.253069 18.1238 86.050769 15.2995 93.420669 13.9484Z"></path></g></g></g><g id="g-root-3.g-3_fr_146q50rl5iubz-fill" data-item-order="-385708" transform="translate(146.29995727539062, 346.171875)"><g id="3.g-3_fr_146q50rl5iubz-fill" stroke="none" fill="#4c4371"><g><path d="M 79.464531 12.249C 73.113131 10.3495 66.302831 9.5958 59.296831 10.2087C 29.587031 12.808 7.609531 38.9998 10.208731 68.7097C 12.033131 89.5626 25.480231 106.6062 43.608631 114.016L 67.236931 111.927C 57.302031 109.199 49.036531 101.4209 46.177431 90.7506C 46.118231 90.5298 46.061731 90.3089 46.007831 90.088C 43.867831 91.1562 42.488531 93.4542 42.709631 95.9814C 42.961831 98.8644 39.939831 100.8066 37.627731 99.066C 28.032931 91.8433 21.424731 80.7334 20.295631 67.8278C 18.183631 43.6885 36.040431 22.4077 60.179631 20.2957C 63.151731 20.0357 66.080531 20.0784 68.935531 20.3983C 71.859131 17.1016 75.408131 14.317 79.464531 12.249Z"></path></g></g></g><g id="g-root-4.g-4_fr_i093hnl5iubl-fill" data-item-order="-385704" transform="translate(181.44500732421875, 344.465087890625)"><g id="4.g-4_fr_i093hnl5iubl-fill" stroke="none" fill="#5c4938"><g><path d="M 84.997 19.436C 76.2313 11.4372 63.6984 7.9364 51.3855 11.2356C 32.1807 16.3815 20.7838 36.1216 25.9297 55.3264L 26.6026 57.8379C 14.0952 64.067 7.2732 78.4285 11.0297 92.4477C 15.3179 108.4517 31.768 117.949 47.772 113.661L 52.6984 112.341L 100.8012 99.4518L 105.7276 98.1318C 121.732 93.8435 131.229 77.3934 126.941 61.3894C 123.184 47.3702 110.096 38.3437 96.1493 39.203L 95.4763 36.6914C 94.6465 33.5945 93.4372 30.7005 91.9117 28.0463C 89.3512 29.7713 86.7322 31.4163 84.0584 32.9775C 85.3493 35.1098 86.3643 37.458 87.0418 39.9867L 89.1124 47.7142C 89.5412 49.3145 91.1862 50.2643 92.7866 49.8355C 103.4559 46.9766 114.423 53.3083 117.282 63.9776C 120.14 74.6469 113.809 85.6137 103.1394 88.4725L 45.1838 104.0016C 34.5145 106.8605 23.5478 100.5288 20.6889 89.8595C 17.8301 79.1902 24.1617 68.2234 34.8311 65.3646C 36.4315 64.9358 37.3812 63.2908 36.9524 61.6904L 34.8818 53.963C 31.0224 39.5594 39.5701 24.7543 53.9737 20.8949C 61.926 18.764 70.0007 20.4152 76.2882 24.7458C 79.2634 23.0849 82.1682 21.3131 84.997 19.436Z"></path></g></g></g><g id="g-root-0a.g-0a_fr_147z36zl5iwi3-fill" data-item-order="-385700" transform="translate(39, 99)"><g id="0a.g-0a_fr_147z36zl5iwi3-fill" stroke="none" fill="#545454"><g><path d="M 67.4869 269.126C 32.5752 242.849 10 201.061 10 154C 10 74.471 74.471 10 154 10C 233.529 10 298 74.471 298 154C 298 219.285 254.555 274.423 195 292.079C 193.602 290.828 192.541 289.17 192.019 287.223C 191.488 285.241 191.591 283.239 192.204 281.431C 247.038 265.016 287 214.175 287 154C 287 80.5461 227.454 21 154 21C 80.5461 21 21 80.5461 21 154C 21 199.16 43.5078 239.063 77.9176 263.103L 67.4869 269.126Z"></path></g></g></g><g id="g-root-tx__18lx97vl50lc9-fill" data-item-order="0" transform="translate(171, 63)"><g id="tx__18lx97vl50lc9-fill" stroke="none" fill="#f4f4f4"><g><text style="font: bold 20px Roboto, sans-serif; white-space: pre;" font-weight="bold" font-size="20px" font-family="Roboto, sans-serif"><tspan x="11.96" y="34" dominant-baseline="ideographic">استراتيجيات فعالة لاختيار الترخيص وحماية الحقوق القانونية</tspan></text></g></g></g><g id="g-root-2_8x4hd7l53f9h-fill" data-item-order="0" transform="translate(135.09600830078125, 156.9410400390625)"></g><g id="g-root-cent_dj6tijl521hc-fill" data-item-order="0" transform="translate(351.22601318359375, 155.4140625)"></g><g id="g-root-tx__v8leqzl5203y-fill" data-item-order="0" transform="translate(399, 161.4140625)"><g id="tx__v8leqzl5203y-fill" stroke="none" fill="#43dd93"><g><text style="font: bold 20px Roboto, sans-serif; white-space: pre;" font-weight="bold" font-size="20px" font-family="Roboto, sans-serif"><tspan x="12" y="34" dominant-baseline="ideographic">تحديد الهدف</tspan></text></g></g></g><g id="g-root-tx__1d14dezl51zwv-fill" data-item-order="0" transform="translate(399, 197.4140625)"><g id="tx__1d14dezl51zwv-fill" stroke="none" fill="#f4f4f4"><g><text style="font: 15px Roboto, sans-serif; white-space: pre;" font-size="15px" font-family="Roboto, sans-serif"><tspan x="12" y="30.6" dominant-baseline="ideographic">تحديد الغرض من المشروع يوجه اختيار الترخيص.</tspan></text></g></g></g><g id="g-root-1_8xr1m3l57nk8-fill" data-item-order="0" transform="translate(351.22601318359375, 251.4140625)"></g><g id="g-root-tx__73qwbl51yx7-fill" data-item-order="0" transform="translate(105.09600830078125, 264.9410400390625)"><g id="tx__73qwbl51yx7-fill" stroke="none" fill="#f4f4f4"><g><text style="font: bold 20px Roboto, sans-serif; white-space: pre;" font-weight="bold" font-size="20px" font-family="Roboto, sans-serif"><tspan x="14.63" y="34" dominant-baseline="ideographic">عملية اختيار الترخيص</tspan></text></g></g></g><g id="g-root-tx__18nsrmzl5696u-fill" data-item-order="0" transform="translate(399, 257.4140625)"><g id="tx__18nsrmzl5696u-fill" stroke="none" fill="#fb6762"><g><text style="font: bold 20px Roboto, sans-serif; white-space: pre;" font-weight="bold" font-size="20px" font-family="Roboto, sans-serif"><tspan x="12" y="34" dominant-baseline="ideographic">حماية البراءات</tspan></text></g></g></g><g id="g-root-tx__1cvi3mzl57lzb-fill" data-item-order="0" transform="translate(399, 293.4140625)"><g id="tx__1cvi3mzl57lzb-fill" stroke="none" fill="#f4f4f4"><g><text style="font: 15px Roboto, sans-serif; white-space: pre;" font-size="15px" font-family="Roboto, sans-serif"><tspan x="12" y="30.6" dominant-baseline="ideographic">تأمين حقوق البراءة يحمي المستخدمين من الاستغلال.</tspan></text></g></g></g><g id="g-root-lock_14141kbl5ln9h-fill" data-item-order="0" transform="translate(351.22601318359375, 347.4140625)"></g><g id="g-root-tx_saas_i0vqwbl5kao3-fill" data-item-order="0" transform="translate(399, 353.4140625)"><g id="tx_saas_i0vqwbl5kao3-fill" stroke="none" fill="#8769fd"><g><text style="font: bold 20px Roboto, sans-serif; white-space: pre;" font-weight="bold" font-size="20px" font-family="Roboto, sans-serif"><tspan x="12" y="34" dominant-baseline="ideographic">ثغرات SaaS</tspan></text></g></g></g><g id="g-root-tx_saasensu_1ha2nl7l5lpu4-fill" data-item-order="0" transform="translate(399, 389.4140625)"><g id="tx_saasensu_1ha2nl7l5lpu4-fill" stroke="none" fill="#f4f4f4"><g><text style="font: 15px Roboto, sans-serif; white-space: pre;" font-size="15px" font-family="Roboto, sans-serif"><tspan x="12" y="27.6" dominant-baseline="ideographic">معالجة ثغرات نموذج SaaS ensures equitable </tspan><tspan x="12" y="45.6" dominant-baseline="ideographic">modification.</tspan></text></g></g></g><g id="g-root-plan_zs5ujvl5itqj-fill" data-item-order="0" transform="translate(351.22601318359375, 455.4140625)"></g><g id="g-root-tx__4g27e3l5ivpd-fill" data-item-order="0" transform="translate(399, 461.4140625)"><g id="tx__4g27e3l5ivpd-fill" stroke="none" fill="#f79438"><g><text style="font: bold 20px Roboto, sans-serif; white-space: pre;" font-weight="bold" font-size="20px" font-family="Roboto, sans-serif"><tspan x="12" y="34" dominant-baseline="ideographic">التوافق</tspan></text></g></g></g><g id="g-root-tx__1hgxyp7l5iwaq-fill" data-item-order="0" transform="translate(399, 497.4140625)"><g id="tx__1hgxyp7l5iwaq-fill" stroke="none" fill="#f4f4f4"><g><text style="font: 15px Roboto, sans-serif; white-space: pre;" font-size="15px" font-family="Roboto, sans-serif"><tspan x="12" y="30.6" dominant-baseline="ideographic">ضمان التوافق مع التبعيات يتجنب النزاعات القانونية.</tspan></text></g></g></g><g id="g-root-tf_18kokizl520pa-stroke" data-item-order="-484466" transform="translate(-9, -9)"></g><g id="g-root-0b.g-0b_fr_1cymaqzl5ivia-stroke" data-item-order="-385726" transform="translate(63.83702087402344, 346.171875)"><g id="0b.g-0b_fr_1cymaqzl5ivia-stroke" fill="none" stroke-linecap="round" stroke-linejoin="round" stroke-miterlimit="4" stroke="#b7b7b7" stroke-width="2"><g><path d="M 72.782085 101.640563L 39.062685 92.605763C 35.846985 91.785363 32.569385 93.672163 31.718185 96.848963C 30.866585 100.027063 32.763585 103.301163 35.960885 104.197063L 10.204485 200.321263C 9.792585 201.858263 10.008185 203.496063 10.803885 204.874163L 15.217185 212.518263L 41.357585 114.961263C 42.215185 111.760463 45.505185 109.860963 48.705985 110.718563C 51.906785 111.576263 53.806285 114.866263 52.948685 118.067062L 23.702485 227.215163L 24.531785 228.651563C 25.636385 230.564663 28.082685 231.220163 29.995885 230.115663L 31.428985 229.288063L 61.451985 117.240663C 62.309585 114.039863 65.599685 112.140363 68.800485 112.997963L 70.733685 113.516163L 70.735285 113.515263L 75.609285 114.821263C 75.582685 114.492562 75.583185 114.157463 75.612885 113.818163C 75.821285 111.435963 77.411385 109.502563 79.535785 108.720663C 76.785585 107.574963 74.514685 105.425663 73.238185 102.636863L 72.782085 101.640563ZM 15.217185 212.518263L 15.216785 212.519763M 23.702485 227.215163L 23.702085 227.216663M 68.800485 112.997963L 75.609385 114.822463"></path></g></g><g id="0b.g-0b_fr_1cymaqzl5ivia-stroke" fill="none" stroke-linecap="round" stroke-linejoin="round" stroke-miterlimit="4" stroke="#b7b7b7" stroke-width="2"><g><path d="M 48.706958 110.721525C 45.506158 109.863925 42.216158 111.763425 41.358458 114.964225L 15.218158 212.521225L 15.217758 212.522725L 23.703058 227.219625L 23.703458 227.218125L 52.949558 118.070025C 53.807258 114.869225 51.907758 111.579225 48.706958 110.721525ZM 15.218158 212.521225L 23.703458 227.218125"></path></g></g><g id="0b.g-0b_fr_1cymaqzl5ivia-stroke" fill="none" stroke-linecap="round" stroke-linejoin="round" stroke-miterlimit="4" stroke="#b7b7b7" stroke-width="2"><g><path d="M 68.801173 113.002775C 65.600373 112.145175 62.310373 114.044675 61.452672 117.245475L 31.429673 229.292875L 50.308173 218.393375C 50.767473 218.128175 51.102673 217.691275 51.239973 217.178975L 52.881773 211.051975C 53.018973 210.539575 52.947173 209.993675 52.681973 209.534275L 47.439273 200.453775L 54.070273 196.625375C 54.529673 196.360075 54.864873 195.923275 55.002173 195.410875L 56.126273 191.215775C 56.263573 190.703375 56.191673 190.157475 55.926473 189.698175L 52.098073 183.067075L 57.714473 179.824475C 58.671073 179.272175 58.998773 178.048975 58.446473 177.092375L 55.203873 171.475975L 64.494473 166.112075C 65.451073 165.559775 65.778873 164.336575 65.226573 163.379975L 59.862573 154.089375L 65.478973 150.846675C 66.435573 150.294375 66.763373 149.071175 66.211073 148.114675L 62.968472 142.498175L 69.599473 138.669775C 70.058873 138.404575 70.393973 137.967775 70.531273 137.455375L 71.655373 133.260275C 71.792673 132.747875 71.720773 132.201975 71.455573 131.742575L 67.627173 125.111575L 74.258172 121.283175C 74.717573 121.017875 75.052772 120.581075 75.190073 120.068675L 76.528573 115.073375L 68.801173 113.002775ZM 70.735973 113.520075L 70.734473 113.520975L 68.801173 113.002775"></path></g></g><g id="0b.g-0b_fr_1cymaqzl5ivia-stroke" fill="none" stroke-linecap="round" stroke-linejoin="round" stroke-miterlimit="4" stroke="#b7b7b7" stroke-width="2"><g><path d="M 55.362843 49.523006C 52.963143 53.002306 52.570443 57.486906 54.329543 61.330106L 66.982543 88.973006L 50.002543 84.423206C 46.928443 83.599506 44.310343 81.589106 42.719043 78.832906L 27.374843 52.256006C 25.165743 48.429606 26.476743 43.536906 30.303043 41.327806L 79.405843 12.978306C 79.942343 12.668606 80.499743 12.428006 81.067843 12.253906L 55.362843 49.523006Z"></path></g></g><g id="0b.g-0b_fr_1cymaqzl5ivia-stroke" fill="none" stroke-linecap="round" stroke-linejoin="round" stroke-miterlimit="4" stroke="#b7b7b7" stroke-width="2"><g><path d="M 122.889087 123.972606C 122.895187 123.979006 122.901187 123.985406 122.907287 123.991806L 121.412187 141.080606C 121.365987 141.609006 121.111687 142.097406 120.705387 142.438306L 114.839887 147.360106L 119.008587 152.328106C 119.718587 153.174306 119.608187 154.435806 118.762087 155.145806L 113.793987 159.314406L 118.715787 165.179906C 119.056687 165.586306 119.222287 166.111406 119.176087 166.639806L 118.797587 170.966406C 118.751287 171.494806 118.497087 171.983206 118.090687 172.324206L 112.225187 177.245906L 117.146987 183.111406C 117.487887 183.517806 117.653487 184.042906 117.607287 184.571306L 117.228687 188.897906C 117.182487 189.426306 116.928287 189.914706 116.521887 190.255706L 110.656387 195.177406L 117.396287 203.209606C 117.737187 203.616006 117.902787 204.141106 117.856587 204.669506L 117.303687 210.988506C 117.257487 211.516906 117.003187 212.005306 116.596887 212.346306L 108.564687 219.086106L 115.460487 227.304206C 116.170487 228.150306 116.060087 229.411806 115.213987 230.121806L 98.329087 244.289906L 108.439187 128.731306C 108.727987 125.430206 111.638187 122.988306 114.939287 123.277106L 122.889087 123.972606Z"></path></g></g><g id="0b.g-0b_fr_1cymaqzl5ivia-stroke" fill="none" stroke-linecap="round" stroke-linejoin="round" stroke-miterlimit="4" stroke="#b7b7b7" stroke-width="2"><g><path d="M 94.754933 124.5232C 91.453833 124.2344 88.543633 126.6763 88.254833 129.9774L 79.452133 230.5931L 90.360633 243.5933L 100.209233 131.0233C 100.498033 127.7222 98.056033 124.812 94.754933 124.5232ZM 100.209233 131.0233L 90.360633 243.5933L 79.452133 230.5931L 88.254833 129.9774C 88.543633 126.6763 91.453833 124.2344 94.754933 124.5232C 98.056033 124.812 100.498033 127.7222 100.209233 131.0233ZM 90.360633 243.5933L 100.209233 131.0233C 100.498033 127.7222 98.056033 124.812 94.754933 124.5232C 91.453833 124.2344 88.543633 126.6763 88.254833 129.9774L 79.452133 230.5931L 90.360633 243.5933Z"></path></g></g><g id="0b.g-0b_fr_1cymaqzl5ivia-stroke" fill="none" stroke-linecap="round" stroke-linejoin="round" stroke-miterlimit="4" stroke="#b7b7b7" stroke-width="2"><g><path d="M 121.884155 112.09165L 79.539155 108.71875C 77.413655 109.50015 75.822555 111.43395 75.614055 113.81705C 75.327255 117.09465 77.763955 119.98965 81.068255 120.31675L 72.394855 219.45315C 72.256255 221.03835 72.752955 222.61375 73.775855 223.83285L 79.452355 230.59655L 88.255055 129.98085C 88.543855 126.67975 91.454055 124.23785 94.755155 124.52665C 98.056255 124.81545 100.498155 127.72565 100.209355 131.02675L 90.360755 243.59675L 91.424055 244.86505C 92.844055 246.55735 95.367155 246.77815 97.059455 245.35815L 98.330055 244.29285L 108.440155 128.73425C 108.728955 125.43315 111.639155 122.99115 114.940255 123.27995L 122.889355 123.97575C 121.997755 123.03155 121.407455 121.79615 121.286055 120.40855C 121.019255 117.35855 123.110655 114.63985 126.064955 114.01345C 124.641355 113.43135 123.246655 112.78975 121.884155 112.09165ZM 122.889355 123.97575L 116.931155 123.45475"></path></g></g><g id="0b.g-0b_fr_1cymaqzl5ivia-stroke" fill="none" stroke-linecap="round" stroke-linejoin="round" stroke-miterlimit="4" stroke="#b7b7b7" stroke-width="2"><g><path d="M 116.558441 19.023556C 100.661441 29.615356 90.889041 48.332556 92.671241 68.703856C 93.194441 74.684056 94.673541 80.351056 96.944841 85.567256L 90.184041 84.975756C 86.882941 84.686956 83.972741 87.128956 83.683941 90.430056C 83.514341 92.368356 80.885941 92.827556 80.069141 91.061556L 65.089341 58.672256C 64.195241 56.738856 64.393141 54.476356 65.609441 52.727556L 88.644541 19.609256C 89.872441 17.843856 91.951041 16.870656 94.093141 17.058056L 116.558441 19.023556Z"></path></g></g><g id="0b.g-0b_fr_1cymaqzl5ivia-stroke" fill="none" stroke-linecap="round" stroke-linejoin="round" stroke-miterlimit="4" stroke="#b7b7b7" stroke-width="2"><g><path d="M 156.202873 129.400425C 155.914073 126.099325 158.355973 123.189125 161.657073 122.900325L 169.626673 122.203125L 170.077373 127.355025C 170.123572 127.883425 169.958073 128.408525 169.617073 128.814925L 164.695373 134.680425L 169.663373 138.849025C 170.509473 139.559025 170.619873 140.820525 169.909873 141.666725L 165.741173 146.634725L 171.606673 151.556425C 172.013073 151.897425 172.267273 152.385825 172.313573 152.914225L 172.692073 157.240825C 172.738273 157.769225 172.572673 158.294425 172.231773 158.700725L 167.310073 164.566225L 172.278073 168.734925C 173.124173 169.444925 173.234573 170.706425 172.524573 171.552525L 168.355873 176.520525L 176.388073 183.260425C 176.794373 183.601325 177.048673 184.089725 177.094873 184.618125L 177.647773 190.937125C 177.693973 191.465625 177.528373 191.990725 177.187473 192.397025L 170.447673 200.429225L 176.313173 205.351025C 176.719473 205.691925 176.973673 206.180325 177.019973 206.708725L 177.398473 211.035325C 177.444673 211.563825 177.279173 212.088925 176.938173 212.495225L 172.016473 218.360725L 180.234473 225.256525C 181.080673 225.966525 181.191073 227.228025 180.480973 228.074225L 166.312973 244.959025L 166.312773 244.957625L 156.202873 129.400425ZM 166.312773 244.957625L 173.584973 236.291025"></path></g></g><g id="0b.g-0b_fr_1cymaqzl5ivia-stroke" fill="none" stroke-linecap="round" stroke-linejoin="round" stroke-miterlimit="4" stroke="#b7b7b7" stroke-width="2"><g><path d="M 141.994963 127.632575C 138.693863 127.921375 136.251963 130.831575 136.540763 134.132675L 145.343363 234.747075L 145.343463 234.748375L 158.343563 245.655475L 148.495063 133.086775C 148.206263 129.785675 145.296063 127.343775 141.994963 127.632575ZM 158.343663 245.656775L 158.343563 245.655475L 145.343363 234.747075"></path></g></g><g id="0b.g-0b_fr_1cymaqzl5ivia-stroke" fill="none" stroke-linecap="round" stroke-linejoin="round" stroke-miterlimit="4" stroke="#b7b7b7" stroke-width="2"><g><path d="M 149.71688 111.921744L 126.07038 114.012144C 123.11298 114.636244 121.01858 117.356544 121.28558 120.408544C 121.57238 123.686144 124.47478 126.114044 127.78558 125.862344L 136.45888 224.998744C 136.59758 226.583944 137.36038 228.049244 138.57938 229.072044L 145.34288 234.747344L 136.54018 134.132944C 136.25138 130.831844 138.69338 127.921644 141.99448 127.632844C 145.29558 127.344044 148.20578 129.785944 148.49458 133.087044L 158.34308 245.655744L 159.61178 246.720244C 161.30408 248.140244 163.82708 247.919544 165.24708 246.227244L 166.31228 244.957844L 156.20228 129.400644C 155.91348 126.099544 158.35548 123.189344 161.65658 122.900544L 171.47978 122.040444C 169.33968 121.579644 167.53368 119.981144 166.93358 117.741544C 166.15508 114.836044 167.67378 111.850244 170.38328 110.674944L 170.39058 110.671744L 170.31558 110.630644L 170.30678 110.633044L 165.38038 111.953044C 160.05368 113.380344 154.67758 113.280444 149.71688 111.921744ZM 145.34288 234.747344L 145.34298 234.748544M 158.34308 245.655744L 158.34318 245.657044M 166.31228 244.957844L 166.31238 244.959244M 170.30678 110.633044L 170.38328 110.674944L 170.39038 110.678844M 173.22798 109.843244L 170.30698 110.625944L 170.31558 110.630644L 173.26698 109.839844"></path></g></g><g id="0b.g-0b_fr_1cymaqzl5ivia-stroke" fill="none" stroke-linecap="round" stroke-linejoin="round" stroke-miterlimit="4" stroke="#b7b7b7" stroke-width="2"><g><path d="M 151.399176 20.3984C 143.643076 29.144 140.288676 41.4939 143.540576 53.63L 144.213576 56.1415C 131.903276 62.2723 125.100676 76.2812 128.470776 90.0879C 126.330676 91.1561 124.951376 93.4542 125.172476 95.9814C 125.424676 98.8644 122.402676 100.8066 120.090576 99.066C 110.495776 91.8433 103.887576 80.7334 102.758476 67.8278C 100.646476 43.6885 118.503276 22.4077 142.642476 20.2957C 145.614876 20.0357 148.543976 20.0784 151.399176 20.3984ZM 161.928476 12.2493C 155.576676 10.3496 148.766076 9.5958 141.759676 10.2087C 112.049876 12.808 90.072376 38.9998 92.671576 68.7097"></path></g></g><g id="0b.g-0b_fr_1cymaqzl5ivia-stroke" fill="none" stroke-linecap="round" stroke-linejoin="round" stroke-miterlimit="4" stroke="#b7b7b7" stroke-width="2"><g><path d="M 218.438154 97.730231L 218.410354 97.737731L 170.307454 110.626831L 170.391054 110.672531C 167.677054 111.845631 166.154854 114.834231 166.934054 117.742431C 167.785654 120.920431 171.065554 122.807531 174.282354 121.984631L 200.038754 218.108831C 200.450654 219.645931 201.456254 220.956431 202.834354 221.752131L 210.480454 226.166731L 184.339754 128.608231C 183.482054 125.407431 185.381554 122.117431 188.582354 121.259831C 191.783154 120.402131 195.073254 122.301631 195.930854 125.502431L 225.177454 234.652031L 226.611754 235.479931C 228.524954 236.584431 230.971254 235.929031 232.075854 234.015831L 232.904354 232.581031L 202.881354 120.533631C 202.023754 117.332831 203.923254 114.042831 207.123954 113.185131L 221.543954 109.321431C 224.782754 108.453531 226.713154 105.155231 225.855454 101.954431C 224.997854 98.753631 221.676954 96.862431 218.438154 97.730231ZM 218.438154 97.730231L 170.307454 110.626831C 170.335354 110.642131 170.363254 110.657331 170.391054 110.672531"></path></g></g><g id="0b.g-0b_fr_1cymaqzl5ivia-stroke" fill="none" stroke-linecap="round" stroke-linejoin="round" stroke-miterlimit="4" stroke="#b7b7b7" stroke-width="2"><g><path d="M 207.124366 113.187788C 203.923566 114.045388 202.024066 117.335388 202.881666 120.536188L 232.904766 232.583588L 241.804166 217.169188C 242.356466 216.212688 242.028766 214.989488 241.072166 214.437188L 235.455766 211.194487L 239.284166 204.563488C 239.549366 204.104088 239.621266 203.558188 239.483966 203.045888L 238.359866 198.850688C 238.222566 198.338388 237.887366 197.901488 237.428066 197.636287L 230.796966 193.807888L 229.244066 188.012288L 233.072466 181.381287C 233.337766 180.921888 233.409566 180.375988 233.272266 179.863688L 232.148266 175.668488C 232.010966 175.156088 231.675766 174.719288 231.216366 174.454088L 224.585366 170.625688L 229.949266 161.334988C 230.501566 160.378388 230.173866 159.155188 229.217266 158.602987L 219.926566 153.238988L 223.169266 147.622588C 223.721566 146.665988 223.393766 145.442788 222.437166 144.890488L 220.494966 143.769187L 223.616366 138.362888C 223.881566 137.903588 223.953366 137.357588 223.816166 136.845288L 222.174366 130.718288C 222.037066 130.205888 221.701866 129.769088 221.242566 129.503888L 212.162066 124.261188L 215.990466 117.630188C 216.255666 117.170788 216.327566 116.624888 216.190266 116.112588L 214.851766 111.117188L 207.124366 113.187788Z"></path></g></g><g id="0b.g-0b_fr_1cymaqzl5ivia-stroke" fill="none" stroke-linecap="round" stroke-linejoin="round" stroke-miterlimit="4" stroke="#b7b7b7" stroke-width="2"><g><path d="M 188.582374 121.260588C 185.381574 122.118288 183.482074 125.408288 184.339674 128.609088L 210.480474 226.167588L 225.177374 234.652888L 195.930774 125.503288C 195.073174 122.302488 191.783174 120.402988 188.582374 121.260588Z"></path></g></g><g id="0b.g-0b_fr_1cymaqzl5ivia-stroke" fill="none" stroke-linecap="round" stroke-linejoin="round" stroke-miterlimit="4" stroke="#b7b7b7" stroke-width="2"><g><path d="M 193.902821 23.035516C 187.614521 18.702016 179.537321 17.049116 171.582521 19.180616C 157.178921 23.040016 148.631221 37.845116 152.490621 52.248716L 154.561221 59.976116C 154.990021 61.576516 154.040321 63.221516 152.439921 63.650416C 141.770621 66.509216 135.438921 77.475916 138.297721 88.145216C 141.156621 98.814616 152.123321 105.146216 162.792621 102.287416L 220.748221 86.758216C 231.417521 83.899416 237.749221 72.932716 234.890321 62.263316C 232.031521 51.594016 221.064821 45.262416 210.395421 48.121216C 208.795021 48.550016 207.150021 47.600316 206.721221 45.999916L 204.650621 38.272516C 203.973621 35.745916 202.959821 33.399416 201.670521 31.268616C 196.865821 34.074116 191.884021 36.609416 186.746021 38.853516C 186.201621 42.704716 183.423421 46.047216 179.429421 47.117416C 176.043621 48.024616 172.597921 47.080816 170.166721 44.906216L 170.162621 44.907516C 168.765421 43.656216 167.703821 41.998316 167.182121 40.051416C 166.979821 39.296416 166.869621 38.538316 166.844521 37.789216C 166.689921 33.243816 169.671721 29.026416 174.253021 27.798916C 176.995321 27.064116 179.776821 27.543616 182.026821 28.907716C 186.095021 27.143716 190.057621 25.182216 193.902821 23.035516Z"></path></g></g></g><g id="g-root-1.g-1_fr_hydo8bl5ivb7-stroke" data-item-order="-385716" transform="translate(67.59188842773438, 335.06591796875)"><g id="1.g-1_fr_hydo8bl5ivb7-stroke" fill="none" stroke-linecap="round" stroke-linejoin="round" stroke-miterlimit="4" stroke="#43dd93" stroke-width="2"><g><path d="M 63.2279 100.0822L 46.248 95.5325C 43.1739 94.7088 40.5563 92.6985 38.965 89.9423L 23.6208 63.3654C 21.4116 59.539 22.7226 54.6463 26.549 52.4372L 75.6517 24.0877C 76.1886 23.7777 76.7465 23.537 77.315 23.3629L 77.4003 23.2393C 79.8516 19.6851 84.0238 17.7218 88.3249 18.0981L 93.9384 18.5892L 92.4446 16.002C 89.1309 10.2625 81.7919 8.296 76.0523 11.6097L 16.002 46.2798C 10.2625 49.5935 8.296 56.9326 11.6097 62.6721L 35.3075 103.718L 69.0276 112.7529L 63.2279 100.0822Z"></path></g></g></g><g id="g-root-2.g-2_fr_1qd76jvl5iv45-stroke" data-item-order="-385712" transform="translate(107.08102416992188, 343.113037109375)"><g id="2.g-2_fr_1qd76jvl5iv45-stroke" fill="none" stroke-linecap="round" stroke-linejoin="round" stroke-miterlimit="4" stroke="#fb6762" stroke-width="2"><g><path d="M 93.420669 13.9484C 93.346769 13.9405 93.272669 13.9333 93.198369 13.9269L 48.837669 10.0458C 44.536569 9.6695 40.364869 11.6328 37.913469 15.1869L 12.121769 52.5813C 9.722069 56.0606 9.329669 60.5458 11.088769 64.3889L 29.995169 105.6939C 31.271969 108.4833 33.543469 110.6325 36.294469 111.7781L 78.656569 115.1524C 67.640369 109.5128 58.730069 100.1745 53.701669 88.6275L 46.939869 88.036C 43.638769 87.7471 40.728569 90.1891 40.439769 93.4902C 40.270169 95.4285 37.641669 95.8877 36.824969 94.1217L 21.845169 61.7324C 20.951069 59.799 21.148969 57.5365 22.365269 55.7878L 45.400369 22.6694C 46.628169 20.9041 48.706869 19.9308 50.848969 20.1182L 73.311169 22.0834C 79.253069 18.1239 86.050769 15.2995 93.420669 13.9484Z"></path></g></g></g><g id="g-root-3.g-3_fr_146q50rl5iubz-stroke" data-item-order="-385708" transform="translate(146.29995727539062, 346.171875)"><g id="3.g-3_fr_146q50rl5iubz-stroke" fill="none" stroke-linecap="round" stroke-linejoin="round" stroke-miterlimit="4" stroke="#8769fd" stroke-width="2"><g><path d="M 79.464531 12.249C 73.113131 10.3495 66.302831 9.5958 59.296831 10.2087C 29.587031 12.808 7.609531 38.9998 10.208731 68.7097C 12.033131 89.5626 25.480231 106.6062 43.608631 114.0161L 67.236931 111.9272C 57.302031 109.199 49.036531 101.4209 46.177431 90.7506C 46.118231 90.5298 46.061731 90.3089 46.007831 90.088C 43.867831 91.1562 42.488531 93.4542 42.709631 95.9814C 42.961831 98.8644 39.939831 100.8066 37.627731 99.066C 28.032931 91.8433 21.424731 80.7334 20.295631 67.8278C 18.183631 43.6885 36.040431 22.4077 60.179631 20.2957C 63.151731 20.0357 66.080531 20.0784 68.935531 20.3983C 71.859131 17.1016 75.408131 14.317 79.464531 12.249Z"></path></g></g></g><g id="g-root-4.g-4_fr_i093hnl5iubl-stroke" data-item-order="-385704" transform="translate(181.44500732421875, 344.465087890625)"><g id="4.g-4_fr_i093hnl5iubl-stroke" fill="none" stroke-linecap="round" stroke-linejoin="round" stroke-miterlimit="4" stroke="#f79438" stroke-width="2"><g><path d="M 84.997 19.436C 76.2313 11.4372 63.6984 7.9364 51.3855 11.2356C 32.1807 16.3815 20.7838 36.1216 25.9297 55.3264L 26.6026 57.8379C 14.0952 64.067 7.2732 78.4285 11.0297 92.4477C 15.3179 108.4517 31.768 117.9492 47.772 113.6609L 52.6984 112.3409L 100.8012 99.4518L 105.7276 98.1318C 121.7315 93.8435 131.229 77.3934 126.9408 61.3894C 123.1843 47.3702 110.0956 38.3437 96.1493 39.203L 95.4763 36.6914C 94.6465 33.5945 93.4372 30.7005 91.9117 28.0463C 89.3512 29.7713 86.7322 31.4163 84.0584 32.9775C 85.3493 35.1098 86.3643 37.458 87.0418 39.9867L 89.1124 47.7142C 89.5412 49.3145 91.1862 50.2643 92.7866 49.8355C 103.4559 46.9766 114.4227 53.3083 117.2815 63.9776C 120.1404 74.6469 113.8087 85.6137 103.1394 88.4725L 45.1838 104.0016C 34.5145 106.8605 23.5478 100.5288 20.6889 89.8595C 17.8301 79.1902 24.1617 68.2234 34.8311 65.3646C 36.4315 64.9358 37.3812 63.2908 36.9524 61.6904L 34.8818 53.963C 31.0224 39.5594 39.5701 24.7543 53.9737 20.8949C 61.926 18.764 70.0007 20.4152 76.2882 24.7458C 79.2634 23.0849 82.1682 21.3131 84.997 19.436ZM 52.6984 112.3409L 52.782 112.3867M 100.8012 99.4518L 100.829 99.4444"></path></g></g></g><g id="g-root-0a.g-0a_fr_147z36zl5iwi3-stroke" data-item-order="-385700" transform="translate(39, 99)"><g id="0a.g-0a_fr_147z36zl5iwi3-stroke" fill="none" stroke-linecap="round" stroke-linejoin="round" stroke-miterlimit="4" stroke="#b7b7b7" stroke-width="2"><g><path d="M 67.4869 269.1255C 32.5752 242.8488 10 201.0608 10 154C 10 74.471 74.471 10 154 10C 233.529 10 298 74.471 298 154C 298 219.2848 254.5552 274.4225 194.9995 292.0793C 193.6023 290.8281 192.5407 289.1702 192.0191 287.2233C 191.488 285.2413 191.5912 283.2388 192.2043 281.4313C 247.0376 265.0156 287 214.1747 287 154C 287 80.5461 227.4539 21 154 21C 80.5461 21 21 80.5461 21 154C 21 199.1601 43.5078 239.0632 77.9176 263.1034L 67.4869 269.1255Z"></path></g></g></g><g id="g-root-tx__18lx97vl50lc9-stroke" data-item-order="0" transform="translate(171, 63)"></g><g id="g-root-2_8x4hd7l53f9h-stroke" data-item-order="0" transform="translate(135.09600830078125, 156.9410400390625)"><g id="2_8x4hd7l53f9h-stroke" fill="none" stroke-linecap="round" stroke-linejoin="round" stroke-miterlimit="4" stroke="#f4f4f4" stroke-width="2"><g><path d="M 41.126961 102.2472L 41.126961 81.111603M 76.549599 102.2472L 76.549599 92.126404L 81.610001 92.126404C 84.294403 92.126404 86.868401 91.059998 88.766403 89.162003C 90.664398 87.264 91.730797 84.689598 91.730797 82.0056L 91.730797 71.884796L 98.1408 71.884796C 98.551201 71.884003 98.955597 71.7836 99.318802 71.591995C 99.681999 71.400398 99.993202 71.123596 100.225601 70.784805C 100.458 70.446396 100.604797 70.056396 100.652802 69.648399C 100.700798 69.240402 100.6492 68.827202 100.501999 68.443604C 93.378403 49.963799 88.586403 33.165359 73.403999 27.98036M 15.33204 67.191605L 15.33204 54.256001L 28.444321 54.256001L 28.444321 67.191605L 15.33204 67.191605ZM 10 10M 16.791 18.36952L 21.51368 23.093L 30.85376 13.752928M 10 10M 16.791 38.620522L 21.51368 43.34404L 30.85376 34.00396M 43.681641 18.42296L 62.667999 18.42296M 43.681641 39.781441L 62.667999 39.781441M 43.681641 60.723999L 62.667999 60.723999"></path></g></g></g><g id="g-root-cent_dj6tijl521hc-stroke" data-item-order="0" transform="translate(351.22601318359375, 155.4140625)"><g id="cent_dj6tijl521hc-stroke" fill="none" stroke-linecap="round" stroke-linejoin="round" stroke-miterlimit="4" stroke="#43dd93" stroke-width="2"><g><path d="M 25.75 28.75L 34 20.5M 34.885002 14.365C 34.31794 14.928695 33.999367 15.695433 34 16.494999L 34 20.5L 38.005001 20.5C 38.804565 20.500633 39.571304 20.182058 40.135002 19.615L 43.75 16L 38.5 16L 38.5 10.75ZM 32.889999 26.5C 33.133236 27.24568 33.254791 28.025665 33.25 28.809999C 33.27203 32.385265 30.767288 35.478996 27.265715 36.201485C 23.764143 36.923973 20.239418 35.074322 18.844505 31.78233C 17.449593 28.490337 18.572374 24.6714 21.527035 22.658199C 24.481693 20.644997 28.446636 20.997335 31 23.5M 38.5 24.25C 40.592716 30.244419 38.225525 36.887009 32.813477 40.206985C 27.401428 43.526962 20.407314 42.626991 16.012049 38.045055C 11.616782 33.463116 11.008335 26.437637 14.550421 21.168278C 18.092506 15.89892 24.827757 13.809906 30.73 16.15M 17.334999 39.310001L 12.25 45.25M 34.165001 39.310001L 39.25 45.25"></path></g></g></g><g id="g-root-tx__v8leqzl5203y-stroke" data-item-order="0" transform="translate(399, 161.4140625)"></g><g id="g-root-tx__1d14dezl51zwv-stroke" data-item-order="0" transform="translate(399, 197.4140625)"></g><g id="g-root-1_8xr1m3l57nk8-stroke" data-item-order="0" transform="translate(351.22601318359375, 251.4140625)"><g id="1_8xr1m3l57nk8-stroke" fill="none" stroke-linecap="round" stroke-linejoin="round" stroke-miterlimit="4" stroke="#fb6762" stroke-width="2"><g><path d="M 14.335 13.555C 13.514767 13.935196 12.992685 14.759966 13 15.664001L 13 27.119499C 12.987609 34.727657 17.652195 41.561264 24.742001 44.321503L 26.349998 44.949997C 27.416498 45.362526 28.598501 45.362526 29.665001 44.950001L 31.265499 44.328999C 38.354916 41.565361 43.016693 34.728523 43 27.119499L 43 15.664C 43.007317 14.759966 42.485237 13.935196 41.665001 13.555C 37.359917 11.663218 32.702206 10.707135 27.999998 10.75C 23.297794 10.707135 18.640081 11.663218 14.335 13.555ZM 20.5 34.75C 20.5 33.092499 23.858501 31.75 28 31.75C 32.141499 31.75 35.5 33.099998 35.5 34.75M 28 31.75L 28 25L 24.3295 23.165501C 23.821405 22.911606 23.500303 22.392498 23.5 21.824499L 23.5 19M 28 25L 31.960001 21.700001C 32.301601 21.415474 32.49939 20.994074 32.5 20.5495L 32.5 19M 28 28.751501L 32.5 25.751501M 28 30.251501L 23.5 27.251501M 28 25.001501L 28 19.001499M 35.875 26.5C 36.082108 26.5 36.25 26.667892 36.25 26.875M 35.5 26.876501C 35.5 26.669392 35.667892 26.501501 35.875 26.501501M 35.875 27.25C 35.667892 27.25 35.5 27.082108 35.5 26.875M 36.25 26.876501C 36.25 27.083607 36.082108 27.251501 35.875 27.251501M 37.375 20.5C 37.582108 20.5 37.75 20.667892 37.75 20.875M 37 20.876499C 36.999603 20.776783 37.038933 20.681015 37.109303 20.610365C 37.179672 20.539715 37.275284 20.5 37.375 20.5M 37.375 21.25C 37.167892 21.25 37 21.082108 37 20.875M 37.75 20.876499C 37.75 21.083607 37.582108 21.251499 37.375 21.251499M 20.875 16.75C 21.082108 16.75 21.25 16.917892 21.25 17.125M 20.5 17.126499C 20.5 16.919394 20.667892 16.751499 20.875 16.751499M 20.875 17.5C 20.668478 17.500002 20.500826 17.333021 20.5 17.126499M 21.25 17.126499C 21.249174 17.333021 21.081522 17.500002 20.875 17.5M 20.125 25C 20.332108 25 20.5 25.167892 20.5 25.375M 19.75 25.376501C 19.749601 25.276783 19.788933 25.181015 19.859303 25.110365C 19.929672 25.039715 20.025284 24.999998 20.125 25M 20.125 25.75C 19.917892 25.75 19.75 25.582108 19.75 25.375M 20.5 25.376501C 20.5 25.583607 20.332108 25.751501 20.125 25.751501"></path></g></g></g><g id="g-root-tx__73qwbl51yx7-stroke" data-item-order="0" transform="translate(105.09600830078125, 264.9410400390625)"></g><g id="g-root-tx__18nsrmzl5696u-stroke" data-item-order="0" transform="translate(399, 257.4140625)"></g><g id="g-root-tx__1cvi3mzl57lzb-stroke" data-item-order="0" transform="translate(399, 293.4140625)"></g><g id="g-root-lock_14141kbl5ln9h-stroke" data-item-order="0" transform="translate(351.22601318359375, 347.4140625)"><g id="lock_14141kbl5ln9h-stroke" fill="none" stroke-linecap="round" stroke-linejoin="round" stroke-miterlimit="4" stroke="#8769fd" stroke-width="2"><g><path d="M 40.75 30.859001C 43.10479 29.769621 44.580967 27.378803 44.500004 24.7855C 44.471603 22.866314 43.663738 21.041248 42.262142 19.729908C 40.86055 18.418568 38.985828 17.733786 37.069 17.833C 35.359619 14.393372 31.8409 12.227202 28 12.25C 22.766321 12.179726 18.380877 16.192654 17.987499 21.411999C 16.424858 21.068434 14.790498 21.443436 13.533941 22.433865C 12.277384 23.424294 11.530971 24.925837 11.5 26.525501C 11.374503 28.864109 12.96222 30.9491 15.25 31.450001M 35.5 42.25C 35.5 43.078426 34.828426 43.75 34 43.75L 23.5 43.75C 22.671572 43.75 22 43.078426 22 42.25L 22 33.25C 22 32.421574 22.671572 31.75 23.5 31.75L 34 31.75C 34.828426 31.75 35.5 32.421574 35.5 33.25ZM 26.875 37.844498C 26.875 38.880035 27.714466 39.719498 28.75 39.719498C 29.785534 39.719498 30.625 38.880035 30.625 37.844498C 30.625 36.808968 29.785534 35.969498 28.75 35.969498C 27.714466 35.969498 26.875 36.808968 26.875 37.844498ZM 32.5 29.5C 32.5 27.428932 30.821068 25.75 28.75 25.75C 26.678932 25.75 25 27.428932 25 29.5L 25 31.75L 32.5 31.75Z"></path></g></g></g><g id="g-root-tx_saas_i0vqwbl5kao3-stroke" data-item-order="0" transform="translate(399, 353.4140625)"></g><g id="g-root-tx_saasensu_1ha2nl7l5lpu4-stroke" data-item-order="0" transform="translate(399, 389.4140625)"></g><g id="g-root-plan_zs5ujvl5itqj-stroke" data-item-order="0" transform="translate(351.22601318359375, 455.4140625)"><g id="plan_zs5ujvl5itqj-stroke" fill="none" stroke-linecap="round" stroke-linejoin="round" stroke-miterlimit="4" stroke="#f79438" stroke-width="2"><g><path d="M 19 25.75L 16 25.75L 16 11.5C 16 11.085787 16.335787 10.75 16.75 10.75L 31.75 10.75C 32.164215 10.75 32.5 11.085787 32.5 11.5L 32.5 25.75L 24.25 25.75M 28 25.75L 28 30.25L 28 30.25C 30.485283 30.25 32.5 32.264721 32.5 34.75L 32.5 35.5L 28 35.5L 28 44.5C 28 44.914215 27.664213 45.25 27.25 45.25L 11.5 45.25C 11.085787 45.25 10.75 44.914215 10.75 44.5L 10.75 26.5C 10.75 26.085787 11.085787 25.75 11.5 25.75L 16 25.75M 28 38.5L 44.5 38.5C 44.914215 38.5 45.25 38.164215 45.25 37.75L 45.25 28L 45.25 28C 42.35051 28.000002 40 25.649494 40 22.75L 44.5 22.75C 44.914215 22.75 45.25 22.414213 45.25 22L 45.25 17.5C 45.25 17.085787 44.914215 16.75 44.5 16.75L 32.5 16.75M 10.75 36.25L 18.25 36.25L 18.25 45.25L 18.25 45.25L 11.5 45.25C 11.085787 45.25 10.75 44.914215 10.75 44.5L 10.75 36.25L 10.75 36.25ZM 10.75 39.25L 18.25 39.25M 10.75 42.25L 18.25 42.25"></path></g></g></g><g id="g-root-tx__4g27e3l5ivpd-stroke" data-item-order="0" transform="translate(399, 461.4140625)"></g><g id="g-root-tx__1hgxyp7l5iwaq-stroke" data-item-order="0" transform="translate(399, 497.4140625)"></g></g></g></svg>