<?xml version="1.0" encoding="utf-8" standalone="yes"?>
<!DOCTYPE svg PUBLIC "-//W3C//DTD SVG 1.1//EN" "http://www.w3.org/Graphics/SVG/1.1/DTD/svg11.dtd">
<svg width="758" height="643" viewBox="0 0 758 643" style="fill:none;stroke:none;fill-rule:evenodd;clip-rule:evenodd;stroke-linecap:round;stroke-linejoin:round;stroke-miterlimit:1.5;" version="1.1" xmlns="http://www.w3.org/2000/svg" xmlns:xlink="http://www.w3.org/1999/xlink"><style class="text-font-style fontImports" data-font-family="Roboto">@import url('https://fonts.googleapis.com/css2?family=Roboto:wght@400;700&amp;display=block');</style><rect id="" x="0" y="0" width="758" height="642.828" style="fill: #2c2c2c;"></rect><g id="items" style="isolation: isolate"><g id="blend" style="mix-blend-mode: normal"><g id="g-root-tf_zlamm3kv9fd8-fill" data-item-order="-484466" transform="translate(-9, -9)"><g id="tf_zlamm3kv9fd8-fill" stroke="none" fill="#2c2c2c"><g><path d="M 10 10L 766 10L 766 650.83L 10 650.83Z"></path></g></g></g><g id="g-root-0b.g-0b_fr_dffz0bkvf2mi-fill" data-item-order="-385726" transform="translate(63.83702087402344, 346.1719970703125)"><g id="0b.g-0b_fr_dffz0bkvf2mi-fill" stroke="none" fill="#545454"><g><path d="M 72.782085 101.640563L 39.062685 92.605763C 35.846985 91.785363 32.569385 93.672163 31.718185 96.848963C 30.866585 100.027063 32.763585 103.301163 35.960885 104.197063L 10.204485 200.321062C 9.792585 201.858063 10.008185 203.496063 10.803885 204.874062L 15.217185 212.518062L 41.357585 114.961263C 42.215185 111.760463 45.505185 109.860963 48.705985 110.718563C 51.906785 111.576263 53.806285 114.866263 52.948685 118.067062L 23.702485 227.215063L 24.531785 228.651063C 25.636385 230.565063 28.082685 231.220063 29.995885 230.116063L 31.428985 229.288063L 61.451985 117.240663C 62.309585 114.039863 65.599685 112.140363 68.800485 112.997963L 70.733685 113.516163L 70.735285 113.515263L 75.609285 114.821263C 75.582685 114.492562 75.583185 114.157463 75.612885 113.818163C 75.821285 111.435963 77.411385 109.502563 79.535785 108.720663C 76.785585 107.574963 74.514685 105.425663 73.238185 102.636863L 72.782085 101.640563Z"></path></g></g><g id="0b.g-0b_fr_dffz0bkvf2mi-fill" stroke="none" fill="#545454"><g><path d="M 48.706958 110.721525C 45.506158 109.863925 42.216158 111.763425 41.358458 114.964225L 15.218158 212.521625L 15.217758 212.522625L 23.703058 227.219625L 23.703458 227.218625L 52.949558 118.070025C 53.807258 114.869225 51.907758 111.579225 48.706958 110.721525Z"></path></g></g><g id="0b.g-0b_fr_dffz0bkvf2mi-fill" stroke="none" fill="#545454"><g><path d="M 68.801173 113.002775C 65.600373 112.145175 62.310373 114.044675 61.452672 117.245475L 31.429673 229.292875L 50.308173 218.392875C 50.767473 218.127875 51.102673 217.690875 51.239973 217.178875L 52.881773 211.051975C 53.018973 210.539575 52.947173 209.993675 52.681973 209.534275L 47.439273 200.453775L 54.070273 196.625375C 54.529673 196.360075 54.864873 195.923275 55.002173 195.410875L 56.126273 191.215775C 56.263573 190.703375 56.191673 190.157475 55.926473 189.698175L 52.098073 183.067075L 57.714473 179.824475C 58.671073 179.272175 58.998773 178.048975 58.446473 177.092375L 55.203873 171.475975L 64.494473 166.112075C 65.451073 165.559775 65.778873 164.336575 65.226573 163.379975L 59.862573 154.089375L 65.478973 150.846675C 66.435573 150.294375 66.763373 149.071175 66.211073 148.114675L 62.968472 142.498175L 69.599473 138.669775C 70.058873 138.404575 70.393973 137.967775 70.531273 137.455375L 71.655373 133.260275C 71.792673 132.747875 71.720773 132.201975 71.455573 131.742575L 67.627173 125.111575L 74.258172 121.283175C 74.717573 121.017875 75.052772 120.581075 75.190073 120.068675L 76.528573 115.073375L 68.801173 113.002775Z"></path></g></g><g id="0b.g-0b_fr_dffz0bkvf2mi-fill" stroke="none" fill="#545454"><g><path d="M 55.362843 49.523006C 52.963143 53.002306 52.570443 57.486906 54.329543 61.330106L 66.982543 88.973006L 50.002543 84.423206C 46.928443 83.599506 44.310343 81.589106 42.719043 78.832906L 27.374843 52.256006C 25.165743 48.429606 26.476743 43.536906 30.303043 41.327806L 79.405843 12.978306C 79.942343 12.668606 80.499743 12.428006 81.067843 12.253906L 55.362843 49.523006Z"></path></g></g><g id="0b.g-0b_fr_dffz0bkvf2mi-fill" stroke="none" fill="#545454"><g><path d="M 122.889087 123.972606C 122.895187 123.979006 122.901187 123.985406 122.907287 123.991806L 121.412187 141.080606C 121.365987 141.609006 121.111687 142.097406 120.705387 142.438306L 114.839887 147.360106L 119.008587 152.328106C 119.718587 153.174306 119.608187 154.435806 118.762087 155.145806L 113.793987 159.314406L 118.715787 165.179906C 119.056687 165.586306 119.222287 166.111406 119.176087 166.639806L 118.797587 170.966406C 118.751287 171.494806 118.497087 171.983206 118.090687 172.324206L 112.225187 177.245906L 117.146987 183.111406C 117.487887 183.517806 117.653487 184.042906 117.607287 184.571306L 117.228687 188.897906C 117.182487 189.426306 116.928287 189.914806 116.521887 190.255706L 110.656387 195.177406L 117.396287 203.209606C 117.737187 203.616006 117.902787 204.141106 117.856587 204.669506L 117.303687 210.988506C 117.257487 211.516906 117.003187 212.005306 116.596887 212.346306L 108.564687 219.086106L 115.460487 227.303906C 116.170487 228.149906 116.060087 229.411906 115.213987 230.121906L 98.329087 244.289906L 108.439187 128.731306C 108.727987 125.430206 111.638187 122.988306 114.939287 123.277106L 122.889087 123.972606Z"></path></g></g><g id="0b.g-0b_fr_dffz0bkvf2mi-fill" stroke="none" fill="#545454"><g><path d="M 94.754933 124.5232C 91.453833 124.2344 88.543633 126.6763 88.254833 129.9774L 79.452133 230.593L 90.360633 243.593L 100.209233 131.0233C 100.498033 127.7222 98.056033 124.812 94.754933 124.5232ZM 100.209233 131.0233L 90.360633 243.593L 79.452133 230.593L 88.254833 129.9774C 88.543633 126.6763 91.453833 124.2344 94.754933 124.5232C 98.056033 124.812 100.498033 127.7222 100.209233 131.0233ZM 90.360633 243.593L 100.209233 131.0233C 100.498033 127.7222 98.056033 124.812 94.754933 124.5232C 91.453833 124.2344 88.543633 126.6763 88.254833 129.9774L 79.452133 230.593L 90.360633 243.593Z"></path></g></g><g id="0b.g-0b_fr_dffz0bkvf2mi-fill" stroke="none" fill="#545454"><g><path d="M 121.884155 112.09165L 79.539155 108.71875C 77.413655 109.50015 75.822555 111.43395 75.614055 113.81705C 75.327255 117.09465 77.763955 119.98965 81.068255 120.31675L 72.394855 219.45275C 72.256255 221.03875 72.752955 222.61375 73.775855 223.83275L 79.452355 230.59675L 88.255055 129.98085C 88.543855 126.67975 91.454055 124.23785 94.755155 124.52665C 98.056255 124.81545 100.498155 127.72565 100.209355 131.02675L 90.360755 243.59675L 91.424055 244.86475C 92.844055 246.55775 95.367155 246.77775 97.059455 245.35775L 98.330055 244.29275L 108.440155 128.73425C 108.728955 125.43315 111.639155 122.99115 114.940255 123.27995L 122.889355 123.97575C 121.997755 123.03155 121.407455 121.79615 121.286055 120.40855C 121.019255 117.35855 123.110655 114.63985 126.064955 114.01345C 124.641355 113.43135 123.246655 112.78975 121.884155 112.09165Z"></path></g></g><g id="0b.g-0b_fr_dffz0bkvf2mi-fill" stroke="none" fill="#545454"><g><path d="M 116.558441 19.023556C 100.661441 29.615356 90.889041 48.332556 92.671241 68.703856C 93.194441 74.684056 94.673541 80.350956 96.944841 85.567256L 90.184041 84.975756C 86.882941 84.686956 83.972741 87.128956 83.683941 90.430056C 83.514341 92.368356 80.885941 92.827556 80.069141 91.061556L 65.089341 58.672256C 64.195241 56.738856 64.393141 54.476356 65.609441 52.727556L 88.644541 19.609256C 89.872441 17.843856 91.951041 16.870656 94.093141 17.058056L 116.558441 19.023556Z"></path></g></g><g id="0b.g-0b_fr_dffz0bkvf2mi-fill" stroke="none" fill="#545454"><g><path d="M 156.202873 129.400525C 155.914073 126.099425 158.355973 123.189125 161.657073 122.900325L 169.626673 122.203125L 170.077373 127.355025C 170.123572 127.883425 169.958073 128.408525 169.617073 128.814925L 164.695373 134.680425L 169.663373 138.849025C 170.509473 139.559025 170.619873 140.820525 169.909873 141.666725L 165.741273 146.634725L 171.606673 151.556425C 172.013073 151.897425 172.267273 152.385825 172.313573 152.914225L 172.692073 157.240825C 172.738273 157.769225 172.572673 158.294425 172.231773 158.700725L 167.310073 164.566225L 172.278073 168.734925C 173.124173 169.444925 173.234573 170.706425 172.524573 171.552525L 168.355873 176.520525L 176.388073 183.260425C 176.794373 183.601325 177.048673 184.089725 177.094873 184.618125L 177.647773 190.937125C 177.693973 191.465625 177.528373 191.990725 177.187473 192.397025L 170.447673 200.429225L 176.313173 205.351025C 176.719473 205.691925 176.973673 206.180325 177.019973 206.708725L 177.398473 211.035325C 177.444673 211.563725 177.279173 212.088925 176.938173 212.495225L 172.016473 218.360725L 180.234473 225.256125C 181.080673 225.966125 181.191073 227.228125 180.480973 228.074125L 166.312973 244.959125L 166.312773 244.957125L 156.202873 129.400525Z"></path></g></g><g id="0b.g-0b_fr_dffz0bkvf2mi-fill" stroke="none" fill="#545454"><g><path d="M 141.994963 127.632575C 138.693863 127.921375 136.251963 130.831575 136.540763 134.132675L 145.343363 234.747375L 145.343463 234.748375L 158.343563 245.655375L 148.495063 133.086775C 148.206263 129.785675 145.296063 127.343775 141.994963 127.632575Z"></path></g></g><g id="0b.g-0b_fr_dffz0bkvf2mi-fill" stroke="none" fill="#545454"><g><path d="M 149.71688 111.921744L 126.07038 114.012144C 123.11298 114.636244 121.01858 117.356544 121.28558 120.408544C 121.57238 123.686144 124.47478 126.114044 127.78558 125.862344L 136.45888 224.998844C 136.59758 226.583844 137.36038 228.048844 138.57938 229.071844L 145.34288 234.746844L 136.54018 134.132944C 136.25138 130.831844 138.69338 127.921644 141.99448 127.632844C 145.29558 127.344044 148.20578 129.785944 148.49458 133.087044L 158.34308 245.655844L 159.61178 246.719844C 161.30408 248.139844 163.82708 247.919844 165.24708 246.226844L 166.31228 244.957844L 156.20228 129.400644C 155.91348 126.099544 158.35548 123.189344 161.65658 122.900544L 171.47978 122.040444C 169.33968 121.579644 167.53368 119.981144 166.93358 117.741544C 166.15508 114.836044 167.67378 111.850244 170.38328 110.674944L 170.39058 110.671744L 170.31558 110.630644L 170.30678 110.633044L 165.38038 111.953044C 160.05368 113.380344 154.67758 113.280444 149.71688 111.921744Z"></path></g></g><g id="0b.g-0b_fr_dffz0bkvf2mi-fill" stroke="none" fill="#545454"><g><path d="M 151.399176 20.3984C 143.643076 29.144 140.288676 41.4939 143.540576 53.63L 144.213576 56.1415C 131.903276 62.2723 125.100676 76.2812 128.470776 90.0879C 126.330676 91.1561 124.951376 93.4542 125.172476 95.9814C 125.424676 98.8644 122.402676 100.8066 120.090576 99.066C 110.495776 91.8433 103.887576 80.7334 102.758476 67.8278C 100.646476 43.6885 118.503276 22.4077 142.642476 20.2957C 145.614876 20.0357 148.543976 20.0784 151.399176 20.3984Z"></path></g></g><g id="0b.g-0b_fr_dffz0bkvf2mi-fill" stroke="none" fill="#545454"><g><path d="M 218.438154 97.730231L 218.410354 97.737731L 170.307454 110.626831L 170.391054 110.672531C 167.677054 111.845631 166.154854 114.834331 166.934054 117.742431C 167.785654 120.920431 171.065554 122.807531 174.282354 121.984631L 200.038754 218.108531C 200.450654 219.645531 201.456254 220.956531 202.834354 221.752531L 210.480454 226.166531L 184.339754 128.608231C 183.482054 125.407431 185.381554 122.117431 188.582354 121.259831C 191.783154 120.402131 195.073254 122.301631 195.930854 125.502431L 225.177454 234.652531L 226.611754 235.479531C 228.524954 236.584531 230.971254 235.928531 232.075854 234.015531L 232.904354 232.580531L 202.881354 120.533631C 202.023754 117.332831 203.923154 114.042831 207.123954 113.185131L 221.543954 109.321431C 224.782754 108.453531 226.713154 105.155231 225.855454 101.954431C 224.997854 98.753631 221.676954 96.862431 218.438154 97.730231Z"></path></g></g><g id="0b.g-0b_fr_dffz0bkvf2mi-fill" stroke="none" fill="#545454"><g><path d="M 207.124366 113.187788C 203.923566 114.045388 202.024066 117.335388 202.881666 120.536188L 232.904766 232.583188L 241.804166 217.169188C 242.356466 216.212188 242.028766 214.989188 241.072166 214.437188L 235.455766 211.194188L 239.284166 204.563488C 239.549366 204.104088 239.621266 203.558188 239.483966 203.045888L 238.359866 198.850688C 238.222566 198.338388 237.887366 197.901488 237.428066 197.636287L 230.796966 193.807888L 229.244066 188.012288L 233.072466 181.381287C 233.337766 180.921888 233.409566 180.375988 233.272266 179.863688L 232.148266 175.668488C 232.010966 175.156088 231.675766 174.719288 231.216366 174.454088L 224.585366 170.625688L 229.949266 161.334988C 230.501566 160.378388 230.173866 159.155188 229.217266 158.602987L 219.926566 153.238988L 223.169266 147.622588C 223.721566 146.665988 223.393766 145.442788 222.437166 144.890488L 220.494966 143.769187L 223.616366 138.362888C 223.881566 137.903588 223.953366 137.357588 223.816166 136.845288L 222.174366 130.718288C 222.037066 130.205888 221.701866 129.769088 221.242566 129.503888L 212.162066 124.261188L 215.990466 117.630188C 216.255666 117.170788 216.327566 116.624888 216.190266 116.112588L 214.851766 111.117188L 207.124366 113.187788Z"></path></g></g><g id="0b.g-0b_fr_dffz0bkvf2mi-fill" stroke="none" fill="#545454"><g><path d="M 188.582374 121.260588C 185.381574 122.118288 183.482074 125.408288 184.339674 128.609088L 210.480474 226.167688L 225.177374 234.652688L 195.930774 125.503288C 195.073174 122.302488 191.783174 120.402988 188.582374 121.260588Z"></path></g></g><g id="0b.g-0b_fr_dffz0bkvf2mi-fill" stroke="none" fill="#545454"><g><path d="M 193.902821 23.035516C 187.614521 18.702016 179.537321 17.049116 171.582521 19.180616C 157.178921 23.040016 148.631221 37.845116 152.490621 52.248716L 154.561221 59.976116C 154.990021 61.576516 154.040321 63.221516 152.439921 63.650416C 141.770621 66.509216 135.438921 77.475916 138.297721 88.145216C 141.156621 98.814616 152.123321 105.146216 162.792621 102.287416L 220.748221 86.758216C 231.417521 83.899416 237.749321 72.932716 234.890321 62.263316C 232.031521 51.594016 221.064821 45.262416 210.395421 48.121216C 208.795021 48.550016 207.150021 47.600316 206.721221 45.999916L 204.650621 38.272516C 203.973621 35.745916 202.959821 33.399416 201.670521 31.268616C 196.865821 34.074116 191.884021 36.609416 186.746021 38.853516C 186.201621 42.704716 183.423421 46.047216 179.429421 47.117416C 176.043621 48.024616 172.597921 47.080816 170.166721 44.906216L 170.162621 44.907516C 168.765421 43.656216 167.703821 41.998316 167.182121 40.051416C 166.979821 39.296416 166.869621 38.538316 166.844521 37.789216C 166.689921 33.243816 169.671721 29.026416 174.253021 27.798916C 176.995321 27.064116 179.776821 27.543616 182.026821 28.907716C 186.095021 27.143716 190.057621 25.182316 193.902821 23.035516Z"></path></g></g></g><g id="g-root-1.g-1_fr_18jfg1nkvf1mr-fill" data-item-order="-385716" transform="translate(67.59188842773438, 335.0660400390625)"><g id="1.g-1_fr_18jfg1nkvf1mr-fill" stroke="none" fill="#3b5649"><g><path d="M 63.2279 100.0822L 46.248 95.5325C 43.1739 94.7088 40.5563 92.6985 38.965 89.9423L 23.6208 63.3654C 21.4116 59.539 22.7226 54.6463 26.549 52.4372L 75.6517 24.0877C 76.1886 23.7777 76.7465 23.537 77.315 23.3629L 77.4003 23.2393C 79.8516 19.6851 84.0238 17.7218 88.3249 18.0981L 93.9384 18.5892L 92.4446 16.002C 89.1309 10.2625 81.7919 8.296 76.0523 11.6097L 16.002 46.2798C 10.2625 49.5935 8.296 56.9326 11.6097 62.6721L 35.3075 103.718L 69.0276 112.753L 63.2279 100.0822Z"></path></g></g></g><g id="g-root-2.g-2_fr_v7yxobkvf37p-fill" data-item-order="-385712" transform="translate(107.08102416992188, 343.113037109375)"><g id="2.g-2_fr_v7yxobkvf37p-fill" stroke="none" fill="#68403f"><g><path d="M 93.420669 13.9484C 93.346769 13.9405 93.272669 13.9334 93.198369 13.9269L 48.837669 10.0458C 44.536569 9.6695 40.364869 11.6328 37.913469 15.1869L 12.121769 52.5813C 9.722069 56.0606 9.329669 60.5458 11.088769 64.3889L 29.995169 105.6939C 31.271969 108.4833 33.543469 110.633 36.294469 111.778L 78.656569 115.152C 67.640369 109.5128 58.730069 100.1745 53.701669 88.6275L 46.939869 88.036C 43.638769 87.7471 40.728569 90.1891 40.439769 93.4902C 40.270169 95.4285 37.641669 95.8877 36.824969 94.1217L 21.845169 61.7324C 20.951069 59.799 21.148969 57.5365 22.365269 55.7878L 45.400369 22.6694C 46.628169 20.9041 48.706869 19.9308 50.848969 20.1182L 73.311169 22.0834C 79.253069 18.1238 86.050769 15.2995 93.420669 13.9484Z"></path></g></g></g><g id="g-root-3.g-3_fr_hx4we3kvf1mv-fill" data-item-order="-385708" transform="translate(146.29995727539062, 346.1719970703125)"><g id="3.g-3_fr_hx4we3kvf1mv-fill" stroke="none" fill="#344e57"><g><path d="M 79.464531 12.249C 73.113131 10.3495 66.302831 9.5958 59.296831 10.2087C 29.587031 12.808 7.609531 38.9998 10.208731 68.7097C 12.033131 89.5626 25.480231 106.6062 43.608631 114.016L 67.236931 111.927C 57.302031 109.199 49.036531 101.4209 46.177431 90.7506C 46.118231 90.5298 46.061731 90.3089 46.007831 90.088C 43.867831 91.1562 42.488531 93.4542 42.709631 95.9814C 42.961831 98.8644 39.939831 100.8066 37.627731 99.066C 28.032931 91.8433 21.424731 80.7334 20.295631 67.8278C 18.183631 43.6885 36.040431 22.4077 60.179631 20.2957C 63.151731 20.0357 66.080531 20.0784 68.935531 20.3983C 71.859131 17.1016 75.408131 14.317 79.464531 12.249Z"></path></g></g></g><g id="g-root-4.g-4_fr_6hczfkvf0u9-fill" data-item-order="-385704" transform="translate(181.44500732421875, 344.4649658203125)"><g id="4.g-4_fr_6hczfkvf0u9-fill" stroke="none" fill="#4b533a"><g><path d="M 84.997 19.436C 76.2313 11.4372 63.6984 7.9364 51.3855 11.2356C 32.1807 16.3815 20.7838 36.1216 25.9297 55.3264L 26.6026 57.8379C 14.0952 64.067 7.2732 78.4285 11.0297 92.4477C 15.3179 108.4517 31.768 117.949 47.772 113.661L 52.6984 112.341L 100.8012 99.4518L 105.7276 98.1318C 121.732 93.8435 131.229 77.3934 126.941 61.3894C 123.184 47.3702 110.096 38.3437 96.1493 39.203L 95.4763 36.6914C 94.6465 33.5945 93.4372 30.7005 91.9117 28.0463C 89.3512 29.7713 86.7322 31.4163 84.0584 32.9775C 85.3493 35.1098 86.3643 37.458 87.0418 39.9867L 89.1124 47.7142C 89.5412 49.3145 91.1862 50.2643 92.7866 49.8355C 103.4559 46.9766 114.423 53.3083 117.282 63.9776C 120.14 74.6469 113.809 85.6137 103.1394 88.4725L 45.1838 104.0016C 34.5145 106.8605 23.5478 100.5288 20.6889 89.8595C 17.8301 79.1902 24.1617 68.2234 34.8311 65.3646C 36.4315 64.9358 37.3812 63.2908 36.9524 61.6904L 34.8818 53.963C 31.0224 39.5594 39.5701 24.7543 53.9737 20.8949C 61.926 18.764 70.0007 20.4152 76.2882 24.7458C 79.2634 23.0849 82.1682 21.3131 84.997 19.436Z"></path></g></g></g><g id="g-root-0a.g-0a_fr_1d0hwcbkvf30r-fill" data-item-order="-385700" transform="translate(39, 99)"><g id="0a.g-0a_fr_1d0hwcbkvf30r-fill" stroke="none" fill="#545454"><g><path d="M 67.4869 269.126C 32.5752 242.849 10 201.061 10 154C 10 74.471 74.471 10 154 10C 233.529 10 298 74.471 298 154C 298 219.285 254.555 274.423 195 292.079C 193.602 290.828 192.541 289.17 192.019 287.223C 191.488 285.241 191.591 283.239 192.204 281.431C 247.038 265.016 287 214.175 287 154C 287 80.5461 227.454 21 154 21C 80.5461 21 21 80.5461 21 154C 21 199.16 43.5078 239.063 77.9176 263.103L 67.4869 269.126Z"></path></g></g></g><g id="g-root-tx_crafting_4njta3kvf285-fill" data-item-order="0" transform="translate(87, 63)"><g id="tx_crafting_4njta3kvf285-fill" stroke="none" fill="#f4f4f4"><g><text style="font: bold 20px Roboto, sans-serif; white-space: pre;" font-weight="bold" font-size="20px" font-family="Roboto, sans-serif"><tspan x="15.02" y="34" dominant-baseline="ideographic">Crafting a Strategic Licensing Approach for Software Projects</tspan></text></g></g></g><g id="g-root-targ_1hap4orkvjawy-fill" data-item-order="0" transform="translate(351.22601318359375, 137.4139404296875)"></g><g id="g-root-tx_goalalig_1qegb23kvhwjk-fill" data-item-order="0" transform="translate(399, 143.4139404296875)"><g id="tx_goalalig_1qegb23kvhwjk-fill" stroke="none" fill="#43dd93"><g><text style="font: bold 20px Roboto, sans-serif; white-space: pre;" font-weight="bold" font-size="20px" font-family="Roboto, sans-serif"><tspan x="12" y="34" dominant-baseline="ideographic">Goal Alignment</tspan></text></g></g></g><g id="g-root-2_94m9krkvf3lz-fill" data-item-order="0" transform="translate(135.09600830078125, 156.94097900390625)"></g><g id="g-root-tx_choosing_qn5muzkvj8qx-fill" data-item-order="0" transform="translate(399, 179.4139404296875)"><g id="tx_choosing_qn5muzkvj8qx-fill" stroke="none" fill="#f4f4f4"><g><text style="font: 15px Roboto, sans-serif; white-space: pre;" font-size="15px" font-family="Roboto, sans-serif"><tspan x="12" y="27.6" dominant-baseline="ideographic">Choosing a license that fits the project's </tspan><tspan x="12" y="45.6" dominant-baseline="ideographic">intended use and audience.</tspan></text></g></g></g><g id="g-root-wind_v5h1bvkvm32d-fill" data-item-order="0" transform="translate(351.22601318359375, 245.4139404296875)"></g><g id="g-root-tx_patentpr_dcy2nvkvm39f-fill" data-item-order="0" transform="translate(399, 251.4139404296875)"><g id="tx_patentpr_dcy2nvkvm39f-fill" stroke="none" fill="#fb6762"><g><text style="font: bold 20px Roboto, sans-serif; white-space: pre;" font-weight="bold" font-size="20px" font-family="Roboto, sans-serif"><tspan x="12" y="34" dominant-baseline="ideographic">Patent Protection</tspan></text></g></g></g><g id="g-root-tx_licensin_zqwt8bkvf3ly-fill" data-item-order="0" transform="translate(93.09600830078125, 264.9410400390625)"><g id="tx_licensin_zqwt8bkvf3ly-fill" stroke="none" fill="#f4f4f4"><g><text style="font: bold 20px Roboto, sans-serif; white-space: pre;" font-weight="bold" font-size="20px" font-family="Roboto, sans-serif"><tspan x="16.21" y="34" dominant-baseline="ideographic">Licensing Strategy</tspan></text></g></g></g><g id="g-root-tx_ensuring_1lrrkzfkvm32c-fill" data-item-order="0" transform="translate(399, 287.4139404296875)"><g id="tx_ensuring_1lrrkzfkvm32c-fill" stroke="none" fill="#f4f4f4"><g><text style="font: 15px Roboto, sans-serif; white-space: pre;" font-size="15px" font-family="Roboto, sans-serif"><tspan x="12" y="27.6" dominant-baseline="ideographic">Ensuring the license provides protection </tspan><tspan x="12" y="45.6" dominant-baseline="ideographic">against patent litigation.</tspan></text></g></g></g><g id="g-root-2_4kfj0bkv2eww-fill" data-item-order="0" transform="translate(351.22601318359375, 353.4139404296875)"></g><g id="g-root-tx_saascons_4ik3qzkv2fwm-fill" data-item-order="0" transform="translate(399, 359.4139404296875)"><g id="tx_saascons_4ik3qzkv2fwm-fill" stroke="none" fill="#1ac3fb"><g><text style="font: bold 20px Roboto, sans-serif; white-space: pre;" font-weight="bold" font-size="20px" font-family="Roboto, sans-serif"><tspan x="12" y="34" dominant-baseline="ideographic">SaaS Considerations</tspan></text></g></g></g><g id="g-root-tx_addressi_141qltnkv2gi7-fill" data-item-order="0" transform="translate(399, 395.4139404296875)"><g id="tx_addressi_141qltnkv2gi7-fill" stroke="none" fill="#f4f4f4"><g><text style="font: 15px Roboto, sans-serif; white-space: pre;" font-size="15px" font-family="Roboto, sans-serif"><tspan x="12" y="27.6" dominant-baseline="ideographic">Addressing the implications of SaaS in </tspan><tspan x="12" y="45.6" dominant-baseline="ideographic">licensing decisions.</tspan></text></g></g></g><g id="g-root-3_1d1qxobkv591n-fill" data-item-order="0" transform="translate(351.22601318359375, 461.4139404296875)"></g><g id="g-root-tx_compatib_1ur5iwrkv58g1-fill" data-item-order="0" transform="translate(399, 467.4139404296875)"><g id="tx_compatib_1ur5iwrkv58g1-fill" stroke="none" fill="#a6da37"><g><text style="font: bold 20px Roboto, sans-serif; white-space: pre;" font-weight="bold" font-size="20px" font-family="Roboto, sans-serif"><tspan x="12" y="34" dominant-baseline="ideographic">Compatibility</tspan></text></g></g></g><g id="g-root-tx_ensuring_qu0xyzkv56v6-fill" data-item-order="0" transform="translate(399, 503.4139404296875)"><g id="tx_ensuring_qu0xyzkv56v6-fill" stroke="none" fill="#f4f4f4"><g><text style="font: 15px Roboto, sans-serif; white-space: pre;" font-size="15px" font-family="Roboto, sans-serif"><tspan x="12" y="27.6" dominant-baseline="ideographic">Ensuring the license works with existing </tspan><tspan x="12" y="45.6" dominant-baseline="ideographic">dependencies.</tspan></text></g></g></g><g id="g-root-tf_zlamm3kv9fd8-stroke" data-item-order="-484466" transform="translate(-9, -9)"></g><g id="g-root-0b.g-0b_fr_dffz0bkvf2mi-stroke" data-item-order="-385726" transform="translate(63.83702087402344, 346.1719970703125)"><g id="0b.g-0b_fr_dffz0bkvf2mi-stroke" fill="none" stroke-linecap="round" stroke-linejoin="round" stroke-miterlimit="4" stroke="#b7b7b7" stroke-width="2"><g><path d="M 72.782085 101.640563L 39.062685 92.605763C 35.846985 91.785363 32.569385 93.672163 31.718185 96.848963C 30.866585 100.027063 32.763585 103.301163 35.960885 104.197063L 10.204485 200.321263C 9.792585 201.858263 10.008185 203.496063 10.803885 204.874163L 15.217185 212.518263L 41.357585 114.961263C 42.215185 111.760463 45.505185 109.860963 48.705985 110.718563C 51.906785 111.576263 53.806285 114.866263 52.948685 118.067062L 23.702485 227.215163L 24.531785 228.651563C 25.636385 230.564663 28.082685 231.220163 29.995885 230.115663L 31.428985 229.288063L 61.451985 117.240663C 62.309585 114.039863 65.599685 112.140363 68.800485 112.997963L 70.733685 113.516163L 70.735285 113.515263L 75.609285 114.821263C 75.582685 114.492562 75.583185 114.157463 75.612885 113.818163C 75.821285 111.435963 77.411385 109.502563 79.535785 108.720663C 76.785585 107.574963 74.514685 105.425663 73.238185 102.636863L 72.782085 101.640563ZM 15.217185 212.518263L 15.216785 212.519763M 23.702485 227.215163L 23.702085 227.216663M 68.800485 112.997963L 75.609385 114.822463"></path></g></g><g id="0b.g-0b_fr_dffz0bkvf2mi-stroke" fill="none" stroke-linecap="round" stroke-linejoin="round" stroke-miterlimit="4" stroke="#b7b7b7" stroke-width="2"><g><path d="M 48.706958 110.721525C 45.506158 109.863925 42.216158 111.763425 41.358458 114.964225L 15.218158 212.521225L 15.217758 212.522725L 23.703058 227.219625L 23.703458 227.218125L 52.949558 118.070025C 53.807258 114.869225 51.907758 111.579225 48.706958 110.721525ZM 15.218158 212.521225L 23.703458 227.218125"></path></g></g><g id="0b.g-0b_fr_dffz0bkvf2mi-stroke" fill="none" stroke-linecap="round" stroke-linejoin="round" stroke-miterlimit="4" stroke="#b7b7b7" stroke-width="2"><g><path d="M 68.801173 113.002775C 65.600373 112.145175 62.310373 114.044675 61.452672 117.245475L 31.429673 229.292875L 50.308173 218.393375C 50.767473 218.128175 51.102673 217.691275 51.239973 217.178975L 52.881773 211.051975C 53.018973 210.539575 52.947173 209.993675 52.681973 209.534275L 47.439273 200.453775L 54.070273 196.625375C 54.529673 196.360075 54.864873 195.923275 55.002173 195.410875L 56.126273 191.215775C 56.263573 190.703375 56.191673 190.157475 55.926473 189.698175L 52.098073 183.067075L 57.714473 179.824475C 58.671073 179.272175 58.998773 178.048975 58.446473 177.092375L 55.203873 171.475975L 64.494473 166.112075C 65.451073 165.559775 65.778873 164.336575 65.226573 163.379975L 59.862573 154.089375L 65.478973 150.846675C 66.435573 150.294375 66.763373 149.071175 66.211073 148.114675L 62.968472 142.498175L 69.599473 138.669775C 70.058873 138.404575 70.393973 137.967775 70.531273 137.455375L 71.655373 133.260275C 71.792673 132.747875 71.720773 132.201975 71.455573 131.742575L 67.627173 125.111575L 74.258172 121.283175C 74.717573 121.017875 75.052772 120.581075 75.190073 120.068675L 76.528573 115.073375L 68.801173 113.002775ZM 70.735973 113.520075L 70.734473 113.520975L 68.801173 113.002775"></path></g></g><g id="0b.g-0b_fr_dffz0bkvf2mi-stroke" fill="none" stroke-linecap="round" stroke-linejoin="round" stroke-miterlimit="4" stroke="#b7b7b7" stroke-width="2"><g><path d="M 55.362843 49.523006C 52.963143 53.002306 52.570443 57.486906 54.329543 61.330106L 66.982543 88.973006L 50.002543 84.423206C 46.928443 83.599506 44.310343 81.589106 42.719043 78.832906L 27.374843 52.256006C 25.165743 48.429606 26.476743 43.536906 30.303043 41.327806L 79.405843 12.978306C 79.942343 12.668606 80.499743 12.428006 81.067843 12.253906L 55.362843 49.523006Z"></path></g></g><g id="0b.g-0b_fr_dffz0bkvf2mi-stroke" fill="none" stroke-linecap="round" stroke-linejoin="round" stroke-miterlimit="4" stroke="#b7b7b7" stroke-width="2"><g><path d="M 122.889087 123.972606C 122.895187 123.979006 122.901187 123.985406 122.907287 123.991806L 121.412187 141.080606C 121.365987 141.609006 121.111687 142.097406 120.705387 142.438306L 114.839887 147.360106L 119.008587 152.328106C 119.718587 153.174306 119.608187 154.435806 118.762087 155.145806L 113.793987 159.314406L 118.715787 165.179906C 119.056687 165.586306 119.222287 166.111406 119.176087 166.639806L 118.797587 170.966406C 118.751287 171.494806 118.497087 171.983206 118.090687 172.324206L 112.225187 177.245906L 117.146987 183.111406C 117.487887 183.517806 117.653487 184.042906 117.607287 184.571306L 117.228687 188.897906C 117.182487 189.426306 116.928287 189.914706 116.521887 190.255706L 110.656387 195.177406L 117.396287 203.209606C 117.737187 203.616006 117.902787 204.141106 117.856587 204.669506L 117.303687 210.988506C 117.257487 211.516906 117.003187 212.005306 116.596887 212.346306L 108.564687 219.086106L 115.460487 227.304206C 116.170487 228.150306 116.060087 229.411806 115.213987 230.121806L 98.329087 244.289906L 108.439187 128.731306C 108.727987 125.430206 111.638187 122.988306 114.939287 123.277106L 122.889087 123.972606Z"></path></g></g><g id="0b.g-0b_fr_dffz0bkvf2mi-stroke" fill="none" stroke-linecap="round" stroke-linejoin="round" stroke-miterlimit="4" stroke="#b7b7b7" stroke-width="2"><g><path d="M 94.754933 124.5232C 91.453833 124.2344 88.543633 126.6763 88.254833 129.9774L 79.452133 230.5931L 90.360633 243.5933L 100.209233 131.0233C 100.498033 127.7222 98.056033 124.812 94.754933 124.5232ZM 100.209233 131.0233L 90.360633 243.5933L 79.452133 230.5931L 88.254833 129.9774C 88.543633 126.6763 91.453833 124.2344 94.754933 124.5232C 98.056033 124.812 100.498033 127.7222 100.209233 131.0233ZM 90.360633 243.5933L 100.209233 131.0233C 100.498033 127.7222 98.056033 124.812 94.754933 124.5232C 91.453833 124.2344 88.543633 126.6763 88.254833 129.9774L 79.452133 230.5931L 90.360633 243.5933Z"></path></g></g><g id="0b.g-0b_fr_dffz0bkvf2mi-stroke" fill="none" stroke-linecap="round" stroke-linejoin="round" stroke-miterlimit="4" stroke="#b7b7b7" stroke-width="2"><g><path d="M 121.884155 112.09165L 79.539155 108.71875C 77.413655 109.50015 75.822555 111.43395 75.614055 113.81705C 75.327255 117.09465 77.763955 119.98965 81.068255 120.31675L 72.394855 219.45315C 72.256255 221.03835 72.752955 222.61375 73.775855 223.83285L 79.452355 230.59655L 88.255055 129.98085C 88.543855 126.67975 91.454055 124.23785 94.755155 124.52665C 98.056255 124.81545 100.498155 127.72565 100.209355 131.02675L 90.360755 243.59675L 91.424055 244.86505C 92.844055 246.55735 95.367155 246.77815 97.059455 245.35815L 98.330055 244.29285L 108.440155 128.73425C 108.728955 125.43315 111.639155 122.99115 114.940255 123.27995L 122.889355 123.97575C 121.997755 123.03155 121.407455 121.79615 121.286055 120.40855C 121.019255 117.35855 123.110655 114.63985 126.064955 114.01345C 124.641355 113.43135 123.246655 112.78975 121.884155 112.09165ZM 122.889355 123.97575L 116.931155 123.45475"></path></g></g><g id="0b.g-0b_fr_dffz0bkvf2mi-stroke" fill="none" stroke-linecap="round" stroke-linejoin="round" stroke-miterlimit="4" stroke="#b7b7b7" stroke-width="2"><g><path d="M 116.558441 19.023556C 100.661441 29.615356 90.889041 48.332556 92.671241 68.703856C 93.194441 74.684056 94.673541 80.351056 96.944841 85.567256L 90.184041 84.975756C 86.882941 84.686956 83.972741 87.128956 83.683941 90.430056C 83.514341 92.368356 80.885941 92.827556 80.069141 91.061556L 65.089341 58.672256C 64.195241 56.738856 64.393141 54.476356 65.609441 52.727556L 88.644541 19.609256C 89.872441 17.843856 91.951041 16.870656 94.093141 17.058056L 116.558441 19.023556Z"></path></g></g><g id="0b.g-0b_fr_dffz0bkvf2mi-stroke" fill="none" stroke-linecap="round" stroke-linejoin="round" stroke-miterlimit="4" stroke="#b7b7b7" stroke-width="2"><g><path d="M 156.202873 129.400425C 155.914073 126.099325 158.355973 123.189125 161.657073 122.900325L 169.626673 122.203125L 170.077373 127.355025C 170.123572 127.883425 169.958073 128.408525 169.617073 128.814925L 164.695373 134.680425L 169.663373 138.849025C 170.509473 139.559025 170.619873 140.820525 169.909873 141.666725L 165.741173 146.634725L 171.606673 151.556425C 172.013073 151.897425 172.267273 152.385825 172.313573 152.914225L 172.692073 157.240825C 172.738273 157.769225 172.572673 158.294425 172.231773 158.700725L 167.310073 164.566225L 172.278073 168.734925C 173.124173 169.444925 173.234573 170.706425 172.524573 171.552525L 168.355873 176.520525L 176.388073 183.260425C 176.794373 183.601325 177.048673 184.089725 177.094873 184.618125L 177.647773 190.937125C 177.693973 191.465625 177.528373 191.990725 177.187473 192.397025L 170.447673 200.429225L 176.313173 205.351025C 176.719473 205.691925 176.973673 206.180325 177.019973 206.708725L 177.398473 211.035325C 177.444673 211.563825 177.279173 212.088925 176.938173 212.495225L 172.016473 218.360725L 180.234473 225.256525C 181.080673 225.966525 181.191073 227.228025 180.480973 228.074225L 166.312973 244.959025L 166.312773 244.957625L 156.202873 129.400425ZM 166.312773 244.957625L 173.584973 236.291025"></path></g></g><g id="0b.g-0b_fr_dffz0bkvf2mi-stroke" fill="none" stroke-linecap="round" stroke-linejoin="round" stroke-miterlimit="4" stroke="#b7b7b7" stroke-width="2"><g><path d="M 141.994963 127.632575C 138.693863 127.921375 136.251963 130.831575 136.540763 134.132675L 145.343363 234.747075L 145.343463 234.748375L 158.343563 245.655475L 148.495063 133.086775C 148.206263 129.785675 145.296063 127.343775 141.994963 127.632575ZM 158.343663 245.656775L 158.343563 245.655475L 145.343363 234.747075"></path></g></g><g id="0b.g-0b_fr_dffz0bkvf2mi-stroke" fill="none" stroke-linecap="round" stroke-linejoin="round" stroke-miterlimit="4" stroke="#b7b7b7" stroke-width="2"><g><path d="M 149.71688 111.921744L 126.07038 114.012144C 123.11298 114.636244 121.01858 117.356544 121.28558 120.408544C 121.57238 123.686144 124.47478 126.114044 127.78558 125.862344L 136.45888 224.998744C 136.59758 226.583944 137.36038 228.049244 138.57938 229.072044L 145.34288 234.747344L 136.54018 134.132944C 136.25138 130.831844 138.69338 127.921644 141.99448 127.632844C 145.29558 127.344044 148.20578 129.785944 148.49458 133.087044L 158.34308 245.655744L 159.61178 246.720244C 161.30408 248.140244 163.82708 247.919544 165.24708 246.227244L 166.31228 244.957844L 156.20228 129.400644C 155.91348 126.099544 158.35548 123.189344 161.65658 122.900544L 171.47978 122.040444C 169.33968 121.579644 167.53368 119.981144 166.93358 117.741544C 166.15508 114.836044 167.67378 111.850244 170.38328 110.674944L 170.39058 110.671744L 170.31558 110.630644L 170.30678 110.633044L 165.38038 111.953044C 160.05368 113.380344 154.67758 113.280444 149.71688 111.921744ZM 145.34288 234.747344L 145.34298 234.748544M 158.34308 245.655744L 158.34318 245.657044M 166.31228 244.957844L 166.31238 244.959244M 170.30678 110.633044L 170.38328 110.674944L 170.39038 110.678844M 173.22798 109.843244L 170.30698 110.625944L 170.31558 110.630644L 173.26698 109.839844"></path></g></g><g id="0b.g-0b_fr_dffz0bkvf2mi-stroke" fill="none" stroke-linecap="round" stroke-linejoin="round" stroke-miterlimit="4" stroke="#b7b7b7" stroke-width="2"><g><path d="M 151.399176 20.3984C 143.643076 29.144 140.288676 41.4939 143.540576 53.63L 144.213576 56.1415C 131.903276 62.2723 125.100676 76.2812 128.470776 90.0879C 126.330676 91.1561 124.951376 93.4542 125.172476 95.9814C 125.424676 98.8644 122.402676 100.8066 120.090576 99.066C 110.495776 91.8433 103.887576 80.7334 102.758476 67.8278C 100.646476 43.6885 118.503276 22.4077 142.642476 20.2957C 145.614876 20.0357 148.543976 20.0784 151.399176 20.3984ZM 161.928476 12.2493C 155.576676 10.3496 148.766076 9.5958 141.759676 10.2087C 112.049876 12.808 90.072376 38.9998 92.671576 68.7097"></path></g></g><g id="0b.g-0b_fr_dffz0bkvf2mi-stroke" fill="none" stroke-linecap="round" stroke-linejoin="round" stroke-miterlimit="4" stroke="#b7b7b7" stroke-width="2"><g><path d="M 218.438154 97.730231L 218.410354 97.737731L 170.307454 110.626831L 170.391054 110.672531C 167.677054 111.845631 166.154854 114.834231 166.934054 117.742431C 167.785654 120.920431 171.065554 122.807531 174.282354 121.984631L 200.038754 218.108831C 200.450654 219.645931 201.456254 220.956431 202.834354 221.752131L 210.480454 226.166731L 184.339754 128.608231C 183.482054 125.407431 185.381554 122.117431 188.582354 121.259831C 191.783154 120.402131 195.073254 122.301631 195.930854 125.502431L 225.177454 234.652031L 226.611754 235.479931C 228.524954 236.584431 230.971254 235.929031 232.075854 234.015831L 232.904354 232.581031L 202.881354 120.533631C 202.023754 117.332831 203.923254 114.042831 207.123954 113.185131L 221.543954 109.321431C 224.782754 108.453531 226.713154 105.155231 225.855454 101.954431C 224.997854 98.753631 221.676954 96.862431 218.438154 97.730231ZM 218.438154 97.730231L 170.307454 110.626831C 170.335354 110.642131 170.363254 110.657331 170.391054 110.672531"></path></g></g><g id="0b.g-0b_fr_dffz0bkvf2mi-stroke" fill="none" stroke-linecap="round" stroke-linejoin="round" stroke-miterlimit="4" stroke="#b7b7b7" stroke-width="2"><g><path d="M 207.124366 113.187788C 203.923566 114.045388 202.024066 117.335388 202.881666 120.536188L 232.904766 232.583588L 241.804166 217.169188C 242.356466 216.212688 242.028766 214.989488 241.072166 214.437188L 235.455766 211.194487L 239.284166 204.563488C 239.549366 204.104088 239.621266 203.558188 239.483966 203.045888L 238.359866 198.850688C 238.222566 198.338388 237.887366 197.901488 237.428066 197.636287L 230.796966 193.807888L 229.244066 188.012288L 233.072466 181.381287C 233.337766 180.921888 233.409566 180.375988 233.272266 179.863688L 232.148266 175.668488C 232.010966 175.156088 231.675766 174.719288 231.216366 174.454088L 224.585366 170.625688L 229.949266 161.334988C 230.501566 160.378388 230.173866 159.155188 229.217266 158.602987L 219.926566 153.238988L 223.169266 147.622588C 223.721566 146.665988 223.393766 145.442788 222.437166 144.890488L 220.494966 143.769187L 223.616366 138.362888C 223.881566 137.903588 223.953366 137.357588 223.816166 136.845288L 222.174366 130.718288C 222.037066 130.205888 221.701866 129.769088 221.242566 129.503888L 212.162066 124.261188L 215.990466 117.630188C 216.255666 117.170788 216.327566 116.624888 216.190266 116.112588L 214.851766 111.117188L 207.124366 113.187788Z"></path></g></g><g id="0b.g-0b_fr_dffz0bkvf2mi-stroke" fill="none" stroke-linecap="round" stroke-linejoin="round" stroke-miterlimit="4" stroke="#b7b7b7" stroke-width="2"><g><path d="M 188.582374 121.260588C 185.381574 122.118288 183.482074 125.408288 184.339674 128.609088L 210.480474 226.167588L 225.177374 234.652888L 195.930774 125.503288C 195.073174 122.302488 191.783174 120.402988 188.582374 121.260588Z"></path></g></g><g id="0b.g-0b_fr_dffz0bkvf2mi-stroke" fill="none" stroke-linecap="round" stroke-linejoin="round" stroke-miterlimit="4" stroke="#b7b7b7" stroke-width="2"><g><path d="M 193.902821 23.035516C 187.614521 18.702016 179.537321 17.049116 171.582521 19.180616C 157.178921 23.040016 148.631221 37.845116 152.490621 52.248716L 154.561221 59.976116C 154.990021 61.576516 154.040321 63.221516 152.439921 63.650416C 141.770621 66.509216 135.438921 77.475916 138.297721 88.145216C 141.156621 98.814616 152.123321 105.146216 162.792621 102.287416L 220.748221 86.758216C 231.417521 83.899416 237.749221 72.932716 234.890321 62.263316C 232.031521 51.594016 221.064821 45.262416 210.395421 48.121216C 208.795021 48.550016 207.150021 47.600316 206.721221 45.999916L 204.650621 38.272516C 203.973621 35.745916 202.959821 33.399416 201.670521 31.268616C 196.865821 34.074116 191.884021 36.609416 186.746021 38.853516C 186.201621 42.704716 183.423421 46.047216 179.429421 47.117416C 176.043621 48.024616 172.597921 47.080816 170.166721 44.906216L 170.162621 44.907516C 168.765421 43.656216 167.703821 41.998316 167.182121 40.051416C 166.979821 39.296416 166.869621 38.538316 166.844521 37.789216C 166.689921 33.243816 169.671721 29.026416 174.253021 27.798916C 176.995321 27.064116 179.776821 27.543616 182.026821 28.907716C 186.095021 27.143716 190.057621 25.182216 193.902821 23.035516Z"></path></g></g></g><g id="g-root-1.g-1_fr_18jfg1nkvf1mr-stroke" data-item-order="-385716" transform="translate(67.59188842773438, 335.0660400390625)"><g id="1.g-1_fr_18jfg1nkvf1mr-stroke" fill="none" stroke-linecap="round" stroke-linejoin="round" stroke-miterlimit="4" stroke="#43dd93" stroke-width="2"><g><path d="M 63.2279 100.0822L 46.248 95.5325C 43.1739 94.7088 40.5563 92.6985 38.965 89.9423L 23.6208 63.3654C 21.4116 59.539 22.7226 54.6463 26.549 52.4372L 75.6517 24.0877C 76.1886 23.7777 76.7465 23.537 77.315 23.3629L 77.4003 23.2393C 79.8516 19.6851 84.0238 17.7218 88.3249 18.0981L 93.9384 18.5892L 92.4446 16.002C 89.1309 10.2625 81.7919 8.296 76.0523 11.6097L 16.002 46.2798C 10.2625 49.5935 8.296 56.9326 11.6097 62.6721L 35.3075 103.718L 69.0276 112.7529L 63.2279 100.0822Z"></path></g></g></g><g id="g-root-2.g-2_fr_v7yxobkvf37p-stroke" data-item-order="-385712" transform="translate(107.08102416992188, 343.113037109375)"><g id="2.g-2_fr_v7yxobkvf37p-stroke" fill="none" stroke-linecap="round" stroke-linejoin="round" stroke-miterlimit="4" stroke="#fb6762" stroke-width="2"><g><path d="M 93.420669 13.9484C 93.346769 13.9405 93.272669 13.9333 93.198369 13.9269L 48.837669 10.0458C 44.536569 9.6695 40.364869 11.6328 37.913469 15.1869L 12.121769 52.5813C 9.722069 56.0606 9.329669 60.5458 11.088769 64.3889L 29.995169 105.6939C 31.271969 108.4833 33.543469 110.6325 36.294469 111.7781L 78.656569 115.1524C 67.640369 109.5128 58.730069 100.1745 53.701669 88.6275L 46.939869 88.036C 43.638769 87.7471 40.728569 90.1891 40.439769 93.4902C 40.270169 95.4285 37.641669 95.8877 36.824969 94.1217L 21.845169 61.7324C 20.951069 59.799 21.148969 57.5365 22.365269 55.7878L 45.400369 22.6694C 46.628169 20.9041 48.706869 19.9308 50.848969 20.1182L 73.311169 22.0834C 79.253069 18.1239 86.050769 15.2995 93.420669 13.9484Z"></path></g></g></g><g id="g-root-3.g-3_fr_hx4we3kvf1mv-stroke" data-item-order="-385708" transform="translate(146.29995727539062, 346.1719970703125)"><g id="3.g-3_fr_hx4we3kvf1mv-stroke" fill="none" stroke-linecap="round" stroke-linejoin="round" stroke-miterlimit="4" stroke="#1ac3fb" stroke-width="2"><g><path d="M 79.464531 12.249C 73.113131 10.3495 66.302831 9.5958 59.296831 10.2087C 29.587031 12.808 7.609531 38.9998 10.208731 68.7097C 12.033131 89.5626 25.480231 106.6062 43.608631 114.0161L 67.236931 111.9272C 57.302031 109.199 49.036531 101.4209 46.177431 90.7506C 46.118231 90.5298 46.061731 90.3089 46.007831 90.088C 43.867831 91.1562 42.488531 93.4542 42.709631 95.9814C 42.961831 98.8644 39.939831 100.8066 37.627731 99.066C 28.032931 91.8433 21.424731 80.7334 20.295631 67.8278C 18.183631 43.6885 36.040431 22.4077 60.179631 20.2957C 63.151731 20.0357 66.080531 20.0784 68.935531 20.3983C 71.859131 17.1016 75.408131 14.317 79.464531 12.249Z"></path></g></g></g><g id="g-root-4.g-4_fr_6hczfkvf0u9-stroke" data-item-order="-385704" transform="translate(181.44500732421875, 344.4649658203125)"><g id="4.g-4_fr_6hczfkvf0u9-stroke" fill="none" stroke-linecap="round" stroke-linejoin="round" stroke-miterlimit="4" stroke="#a6da37" stroke-width="2"><g><path d="M 84.997 19.436C 76.2313 11.4372 63.6984 7.9364 51.3855 11.2356C 32.1807 16.3815 20.7838 36.1216 25.9297 55.3264L 26.6026 57.8379C 14.0952 64.067 7.2732 78.4285 11.0297 92.4477C 15.3179 108.4517 31.768 117.9492 47.772 113.6609L 52.6984 112.3409L 100.8012 99.4518L 105.7276 98.1318C 121.7315 93.8435 131.229 77.3934 126.9408 61.3894C 123.1843 47.3702 110.0956 38.3437 96.1493 39.203L 95.4763 36.6914C 94.6465 33.5945 93.4372 30.7005 91.9117 28.0463C 89.3512 29.7713 86.7322 31.4163 84.0584 32.9775C 85.3493 35.1098 86.3643 37.458 87.0418 39.9867L 89.1124 47.7142C 89.5412 49.3145 91.1862 50.2643 92.7866 49.8355C 103.4559 46.9766 114.4227 53.3083 117.2815 63.9776C 120.1404 74.6469 113.8087 85.6137 103.1394 88.4725L 45.1838 104.0016C 34.5145 106.8605 23.5478 100.5288 20.6889 89.8595C 17.8301 79.1902 24.1617 68.2234 34.8311 65.3646C 36.4315 64.9358 37.3812 63.2908 36.9524 61.6904L 34.8818 53.963C 31.0224 39.5594 39.5701 24.7543 53.9737 20.8949C 61.926 18.764 70.0007 20.4152 76.2882 24.7458C 79.2634 23.0849 82.1682 21.3131 84.997 19.436ZM 52.6984 112.3409L 52.782 112.3867M 100.8012 99.4518L 100.829 99.4444"></path></g></g></g><g id="g-root-0a.g-0a_fr_1d0hwcbkvf30r-stroke" data-item-order="-385700" transform="translate(39, 99)"><g id="0a.g-0a_fr_1d0hwcbkvf30r-stroke" fill="none" stroke-linecap="round" stroke-linejoin="round" stroke-miterlimit="4" stroke="#b7b7b7" stroke-width="2"><g><path d="M 67.4869 269.1255C 32.5752 242.8488 10 201.0608 10 154C 10 74.471 74.471 10 154 10C 233.529 10 298 74.471 298 154C 298 219.2848 254.5552 274.4225 194.9995 292.0793C 193.6023 290.8281 192.5407 289.1702 192.0191 287.2233C 191.488 285.2413 191.5912 283.2388 192.2043 281.4313C 247.0376 265.0156 287 214.1747 287 154C 287 80.5461 227.4539 21 154 21C 80.5461 21 21 80.5461 21 154C 21 199.1601 43.5078 239.0632 77.9176 263.1034L 67.4869 269.1255Z"></path></g></g></g><g id="g-root-tx_crafting_4njta3kvf285-stroke" data-item-order="0" transform="translate(87, 63)"></g><g id="g-root-targ_1hap4orkvjawy-stroke" data-item-order="0" transform="translate(351.22601318359375, 137.4139404296875)"><g id="targ_1hap4orkvjawy-stroke" fill="none" stroke-linecap="round" stroke-linejoin="round" stroke-miterlimit="4" stroke="#43dd93" stroke-width="2"><g><path d="M 12.733 16.021C 12.732126 18.932711 15.092289 21.293581 18.004 21.293581C 20.91571 21.293581 23.275873 18.932711 23.275 16.021C 23.275873 13.109289 20.91571 10.748419 18.004 10.748419C 15.092289 10.748419 12.732126 13.109289 12.733 16.021M 21.2215 24.029499C 19.142822 22.894238 16.619591 22.93903 14.582519 24.14736C 12.545446 25.355688 11.296362 27.548515 11.296 29.917L 11.296 35.6665L 14.3305 35.6665L 15.13 45.25L 20.879499 45.25M 37.900002 32.487999C 38.948593 36.563789 37.129395 40.8358 33.46431 42.904312C 29.799219 44.972824 25.201797 44.322243 22.254553 41.318024C 19.307304 38.313797 18.744865 33.704762 20.883171 30.079948C 23.021475 26.455135 27.32753 24.718063 31.3825 25.8445M 33.535 34.821999C 33.535 37.395092 31.449095 39.480999 28.875999 39.480999C 26.302906 39.480999 24.216999 37.395092 24.216999 34.821999C 24.216999 32.248905 26.302906 30.162998 28.875999 30.162998M 35.5975 27.934L 29.128 34.821999M 39.959499 23.353001L 39.954998 18.335501L 35.372501 22.552L 35.5975 27.934M 39.959499 23.353001L 44.703999 23.353001L 40.487503 27.934L 35.5975 27.934"></path></g></g></g><g id="g-root-tx_goalalig_1qegb23kvhwjk-stroke" data-item-order="0" transform="translate(399, 143.4139404296875)"></g><g id="g-root-2_94m9krkvf3lz-stroke" data-item-order="0" transform="translate(135.09600830078125, 156.94097900390625)"><g id="2_94m9krkvf3lz-stroke" fill="none" stroke-linecap="round" stroke-linejoin="round" stroke-miterlimit="4" stroke="#f4f4f4" stroke-width="2"><g><path d="M 58 25.5L 58 35.5M 52 19.5C 52 22.813709 54.686295 25.5 58 25.5C 61.313709 25.5 64 22.813709 64 19.5C 64 16.186291 61.313709 13.5 58 13.5C 54.686295 13.5 52 16.186291 52 19.5M 91 59.5L 82 59.5M 91 59.5C 91 62.813709 93.686295 65.5 97 65.5C 100.313713 65.5 103 62.813709 103 59.5C 103 56.186295 100.313713 53.5 97 53.5C 93.686295 53.5 91 56.186295 91 59.5M 81.900002 35.708L 74.832001 42.779999M 80.143997 31.468C 80.144005 34.781708 82.830292 37.468002 86.144005 37.468002C 89.45771 37.468002 92.144005 34.781708 92.144005 31.468C 92.144005 28.154293 89.45771 25.468 86.144005 25.468C 82.830292 25.468 80.144005 28.154293 80.144005 31.468M 25 59.5L 34 59.5M 13 59.5C 13 62.813709 15.686292 65.5 19 65.5C 22.313709 65.5 25 62.813709 25 59.5C 25 56.186295 22.313709 53.5 19 53.5C 15.686292 53.5 13 56.186295 13 59.5M 34.099998 35.708L 41.167999 42.779999M 23.855999 31.468C 23.856001 34.781708 26.542292 37.468002 29.856001 37.468002C 33.169708 37.468002 35.856003 34.781708 35.856003 31.468C 35.856003 28.154293 33.169708 25.468 29.856001 25.468C 26.542292 25.468 23.856001 28.154293 23.856001 31.468M 44.571999 58.167999C 52.053303 65.917206 63.549309 68.228195 73.444 63.972M 42.416 66.084C 42.416 74.690804 49.393192 81.667999 58 81.667999C 66.606804 81.667999 73.584 74.690804 73.584 66.084C 73.584 57.477196 66.606804 50.5 58 50.5C 49.393192 50.5 42.416 57.477196 42.416 66.084M 81.839996 102.5C 77.511963 93.245407 68.218628 87.332169 58.002003 87.332169C 47.785374 87.332169 38.492039 93.245407 34.164001 102.5M 58 87.332001L 58 102.5"></path></g></g></g><g id="g-root-tx_choosing_qn5muzkvj8qx-stroke" data-item-order="0" transform="translate(399, 179.4139404296875)"></g><g id="g-root-wind_v5h1bvkvm32d-stroke" data-item-order="0" transform="translate(351.22601318359375, 245.4139404296875)"><g id="wind_v5h1bvkvm32d-stroke" fill="none" stroke-linecap="round" stroke-linejoin="round" stroke-miterlimit="4" stroke="#fb6762" stroke-width="2"><g><path d="M 35.722 25.027L 35.722 15.109C 35.726833 14.37009 35.297573 13.697132 34.6255 13.39C 31.090748 11.846707 27.2698 11.067694 23.413 11.104C 19.556213 11.067829 15.735292 11.846837 12.2005 13.389999C 11.529273 13.697876 11.100782 14.370548 11.1055 15.109L 11.1055 24.721001C 11.105143 30.940042 14.935337 36.516872 20.74 38.749001L 22.054001 39.254501C 22.929373 39.59045 23.898125 39.59045 24.7735 39.254498L 26.087502 38.749001M 22.4935 34.843002C 18.141537 33.326126 15.212249 29.238091 15.175 24.629501L 15.175 16.1005C 17.743948 15.274331 20.426476 14.855756 23.125 14.86L 23.713001 14.86C 26.411966 14.856083 29.094751 15.276723 31.663 16.106501L 31.663 24.629501C 31.625933 29.239422 28.695162 33.328453 24.341499 34.844498L 23.424999 35.195503ZM 15.247 25.886499L 28.264 15.394M 17.802999 31.622499L 31.651001 20.459499M 30.644499 40L 38.879501 40C 39.985634 40.001644 40.953064 40.745281 41.239132 41.813789C 41.5252 42.882294 41.058731 44.009819 40.101387 44.563915C 39.144035 45.118011 37.933994 44.960815 37.150002 44.1805M 37.850498 31.219C 38.573277 29.530611 40.432709 28.636318 42.202888 29.125713C 43.973076 29.615108 45.10907 31.337538 44.861927 33.157425C 44.614788 34.97731 43.060593 36.334404 41.223999 36.334L 30.644499 36.334"></path></g></g></g><g id="g-root-tx_patentpr_dcy2nvkvm39f-stroke" data-item-order="0" transform="translate(399, 251.4139404296875)"></g><g id="g-root-tx_licensin_zqwt8bkvf3ly-stroke" data-item-order="0" transform="translate(93.09600830078125, 264.9410400390625)"></g><g id="g-root-tx_ensuring_1lrrkzfkvm32c-stroke" data-item-order="0" transform="translate(399, 287.4139404296875)"></g><g id="g-root-2_4kfj0bkv2eww-stroke" data-item-order="0" transform="translate(351.22601318359375, 353.4139404296875)"><g id="2_4kfj0bkv2eww-stroke" fill="none" stroke-linecap="round" stroke-linejoin="round" stroke-miterlimit="4" stroke="#1ac3fb" stroke-width="2"><g><path d="M 22.59985 37.374699C 23.842495 37.374699 24.84985 36.367298 24.84985 35.124699C 24.84985 33.88195 23.842495 32.874699 22.59985 32.874699C 21.35722 32.874699 20.34985 33.88195 20.34985 35.124699C 20.34985 36.367298 21.35722 37.374699 22.59985 37.374699ZM 28.59985 30.624699C 29.842449 30.624699 30.84985 29.6173 30.84985 28.374699C 30.84985 27.13195 29.842449 26.124699 28.59985 26.124699C 27.35725 26.124699 26.34985 27.13195 26.34985 28.374699C 26.34985 29.6173 27.35725 30.624699 28.59985 30.624699ZM 28.59985 30.624699L 28.59985 42.624699M 34.59985 37.374699C 35.842449 37.374699 36.84985 36.367298 36.84985 35.124699C 36.84985 33.88195 35.842449 32.874699 34.59985 32.874699C 33.35725 32.874699 32.34985 33.88195 32.34985 35.124699C 32.34985 36.367298 33.35725 37.374699 34.59985 37.374699ZM 34.59985 37.374699L 34.59985 42.624699M 22.59985 37.374699L 22.59985 42.624699M 40.992252 34.974998C 43.232349 33.775002 44.875 31.375 44.875 28.525002C 44.875 24.474998 41.58955 21.174999 37.557549 21.174999C 36.064152 21.174999 34.570751 21.625 33.376148 22.525002C 32.330799 17.275 27.850601 13.375 22.325214 13.375C 16.202425 13.375 11.125 18.475 11.125 24.625C 11.125 28.674999 13.365055 32.275002 16.50112 34.224998"></path></g></g></g><g id="g-root-tx_saascons_4ik3qzkv2fwm-stroke" data-item-order="0" transform="translate(399, 359.4139404296875)"></g><g id="g-root-tx_addressi_141qltnkv2gi7-stroke" data-item-order="0" transform="translate(399, 395.4139404296875)"></g><g id="g-root-3_1d1qxobkv591n-stroke" data-item-order="0" transform="translate(351.22601318359375, 461.4139404296875)"><g id="3_1d1qxobkv591n-stroke" fill="none" stroke-linecap="round" stroke-linejoin="round" stroke-miterlimit="4" stroke="#a6da37" stroke-width="2"><g><path d="M 24.577 35.137001L 14.2345 35.137001C 12.310063 35.137001 10.75 33.576935 10.75 31.6525L 10.75 22.943501L 15.1 22.943501C 15.100126 21.500469 16.26997 20.330729 17.712999 20.330729C 19.156031 20.330729 20.325874 21.500469 20.326 22.943501L 24.676001 22.943501L 24.676001 30.2395M 10.75 22.943501L 10.75 14.2345C 10.75 12.310063 12.310063 10.75 14.2345 10.75L 24.684999 10.75L 24.684999 14.2345C 25.63319 14.211777 26.519243 14.704639 27.000019 15.522219C 27.480797 16.339798 27.480797 17.353703 27.000019 18.171282C 26.519243 18.988861 25.63319 19.481724 24.684999 19.459L 24.684999 22.943501M 33.660999 22.943501L 24.684999 22.943501M 24.684999 10.75L 34.265499 10.75C 36.189934 10.75 37.75 12.310063 37.75 14.2345L 37.75 22.943501M 27.25 36.25C 27.250002 41.220566 31.279438 45.25 36.25 45.25C 41.220566 45.25 45.25 41.220566 45.25 36.25C 45.25 31.279438 41.220566 27.250002 36.25 27.250002C 31.279438 27.250002 27.250002 31.279438 27.250002 36.25M 38.5 40.150002C 37.107697 40.95385 35.392303 40.95385 34 40.150002M 36.25 27.25C 37.492641 27.25 38.5 28.25736 38.5 29.5C 38.5 30.742641 37.492641 31.75 36.25 31.75M 40.1875 34C 40.498161 34 40.75 34.251842 40.75 34.5625M 39.625 34.5625C 39.625 34.251842 39.876842 34 40.1875 34M 40.1875 35.125C 39.876842 35.125 39.625 34.873161 39.625 34.5625M 40.75 34.5625C 40.75 34.873161 40.498161 35.125 40.1875 35.125M 32.3125 34C 32.623161 34 32.875 34.251842 32.875 34.5625M 31.75 34.5625C 31.75 34.251842 32.001839 34 32.3125 34M 32.3125 35.125C 32.001839 35.125 31.75 34.873161 31.75 34.5625M 32.875 34.5625C 32.875 34.873161 32.623161 35.125 32.3125 35.125"></path></g></g></g><g id="g-root-tx_compatib_1ur5iwrkv58g1-stroke" data-item-order="0" transform="translate(399, 467.4139404296875)"></g><g id="g-root-tx_ensuring_qu0xyzkv56v6-stroke" data-item-order="0" transform="translate(399, 503.4139404296875)"></g></g></g></svg>